<?xml version="1.0" encoding="UTF-8" standalone="no"?>
<!-- Created with Inkscape (http://www.inkscape.org/) -->
<svg
   xmlns:dc="http://purl.org/dc/elements/1.1/"
   xmlns:cc="http://web.resource.org/cc/"
   xmlns:rdf="http://www.w3.org/1999/02/22-rdf-syntax-ns#"
   xmlns:svg="http://www.w3.org/2000/svg"
   xmlns="http://www.w3.org/2000/svg"
   xmlns:sodipodi="http://inkscape.sourceforge.net/DTD/sodipodi-0.dtd"
   xmlns:inkscape="http://www.inkscape.org/namespaces/inkscape"
   id="svg2"
   sodipodi:version="0.32"
   inkscape:version="0.43"
   width="250"
   height="100"
   sodipodi:docbase="C:\Documents and Settings\clint\My Documents\Working"
   sodipodi:docname="ziggurat.svg"
   version="1.0">
  <metadata
     id="metadata7">
    <rdf:RDF>
      <cc:Work
         rdf:about="">
        <dc:format>image/svg+xml</dc:format>
        <dc:type
           rdf:resource="http://purl.org/dc/dcmitype/StillImage" />
      </cc:Work>
    </rdf:RDF>
  </metadata>
  <defs
     id="defs5" />
  <sodipodi:namedview
     inkscape:window-height="540"
     inkscape:window-width="749"
     inkscape:pageshadow="2"
     inkscape:pageopacity="0.0"
     borderopacity="1.0"
     bordercolor="#666666"
     pagecolor="#ffffff"
     id="base"
     inkscape:showpageshadow="false"
     inkscape:zoom="2"
     inkscape:cx="131.8498"
     inkscape:cy="68.623587"
     inkscape:window-x="154"
     inkscape:window-y="154"
     inkscape:current-layer="g1308" />
  <g
     id="g1308"
     transform="translate(-14.06902,-14.77248)">
    <g
       id="g1326"
       transform="matrix(0.961241,0,0,0.947458,-105.8237,-194.9538)">
      <path
         id="path1322"
         d="M 200.39401,326.28319 C 200.04632,325.94277 158.96189,323.77274 155.80731,323.92817 C 142.79232,324.56946 124.80731,324.59514 124.80731,323.97244 C 124.80731,323.14767 127.40236,322.50829 134.9272,321.47904 C 139.24755,320.88811 139.62284,320.59427 140.71559,316.94699 C 141.50268,314.31991 142.83247,312.55643 144.78952,311.5444 C 146.38751,310.71805 148.28472,308.80293 149.00556,307.28857 C 149.7264,305.77422 151.34201,304.0852 152.5958,303.5352 C 153.97683,302.92938 155.32568,301.03327 156.01771,298.72493 C 156.88659,295.82666 157.79158,294.78834 159.79873,294.38692 C 161.68111,294.01044 162.99207,292.66622 164.37238,289.69718 C 165.7071,286.82624 167.03154,285.43263 168.64204,285.20455 C 170.23702,284.97866 171.46079,283.71128 172.50443,281.20455 C 174.24075,277.03402 175.36774,276.07226 178.54389,276.05051 C 180.14869,276.03953 181.19432,275.04473 182.24552,272.52884 C 183.05652,270.58785 184.783,268.61474 186.11277,268.10916 C 187.43398,267.60684 189.46557,265.5847 190.62742,263.61552 C 191.90486,261.45042 193.51234,260.0352 194.69413,260.0352 C 196.05078,260.0352 196.84912,259.12131 197.30479,257.04667 C 197.66581,255.40298 198.40432,253.78426 198.94593,253.44953 C 199.48754,253.1148 200.337,251.7722 200.83362,250.46599 C 201.37485,249.04246 202.85239,247.84611 204.52194,247.47961 C 206.05389,247.14331 207.86981,246.69486 208.55731,246.48306 C 209.37275,246.23184 209.80731,244.04464 209.80731,240.19159 C 209.80731,228.50734 209.61404,228.75634 221.65429,224.92888 C 231.63369,221.75654 233.2558,221.53226 247.30731,221.38197 C 255.55731,221.29373 263.28725,221.44522 264.48495,221.71861 C 267.27201,222.3548 267.84451,223.91993 268.53297,232.7852 C 269.07827,239.80709 269.17884,240.0352 271.72914,240.0352 C 275.29286,240.0352 278.20908,242.25476 280.22386,246.50059 C 281.54691,249.28872 282.48445,250.0352 284.6631,250.0352 C 287.82268,250.0352 289.72514,251.36919 292.15033,255.2852 C 293.28517,257.11765 294.7018,258.0352 296.3961,258.0352 C 300.07313,258.0352 302.3002,259.51053 304.65956,263.50936 C 306.15314,266.04079 307.44117,267.0352 309.22646,267.0352 C 310.92508,267.0352 312.7317,268.30276 314.92755,271.0352 C 317.0208,273.63997 318.95568,275.0352 320.47467,275.0352 C 322.92377,275.0352 325.53921,277.17021 328.35546,281.46834 C 329.51784,283.24235 330.92844,284.0352 332.92232,284.0352 C 335.65993,284.0352 337.22559,285.15113 340.91918,289.73502 C 341.8057,290.83523 344.2807,292.02385 346.41918,292.3764 C 349.41464,292.87023 350.826,293.823 352.5665,296.5263 C 354.31079,299.23546 355.49847,300.0352 357.77755,300.0352 C 360.78737,300.0352 364.29977,302.86072 365.33171,306.11207 C 365.63271,307.06044 367.00077,308.11792 368.37184,308.46204 C 369.89736,308.84492 371.50751,310.43569 372.52122,312.56145 C 374.10512,315.88293 374.41071,316.0352 379.49252,316.0352 C 383.29293,316.0352 384.80731,316.42064 384.80731,317.38792 C 384.80731,318.84607 378.37336,319.43102 348.80731,320.66092 C 340.28231,321.01555 332.78841,321.71374 332.15421,322.21247 C 331.52,322.7112 323.51015,323.32238 314.35453,323.57064 C 305.19892,323.81891 296.59947,324.30024 295.24465,324.64028 C 293.88983,324.98032 292.17308,324.75373 291.42966,324.13674 C 289.94168,322.90183 250.00356,324.1407 228.80731,326.07927 C 219.03403,326.97312 201.22918,327.1009 200.39401,326.28319 z "
         style="fill:#e3dad4" />
      <path
         id="path1320"
         d="M 200.38448,326.26952 C 200.02585,325.92329 163.80616,323.99861 157.30731,323.98045 C 154.55731,323.97276 146.11981,324.10839 138.55731,324.28185 C 121.60939,324.67058 120.05246,323.50855 134.9108,321.56023 C 139.2333,320.99344 139.58661,320.7152 140.69919,317.00172 C 141.50237,314.32098 142.82013,312.56281 144.78952,311.5444 C 146.38751,310.71805 148.28472,308.80293 149.00556,307.28857 C 149.7264,305.77422 151.26069,304.11941 152.4151,303.61121 C 153.56951,303.10302 155.36751,300.85302 156.41067,298.61121 C 157.64332,295.96216 159.06517,294.42724 160.47209,294.22682 C 161.92239,294.02021 163.1543,292.62526 164.20462,290.00025 C 165.30431,287.25185 166.55608,285.88538 168.39744,285.42322 C 170.16683,284.97914 171.51304,283.58612 172.52731,281.14978 C 174.23663,277.04388 175.37662,276.07229 178.51039,276.05051 C 180.03311,276.03993 181.221,274.96567 182.35689,272.57196 C 183.26077,270.66718 184.87376,268.8315 185.94132,268.49267 C 187.00888,268.15384 188.9961,266.1123 190.35737,263.95591 C 191.82585,261.62967 193.60834,260.0352 194.7404,260.0352 C 196.04568,260.0352 196.85575,259.09115 197.30479,257.04667 C 197.66581,255.40298 198.40432,253.78426 198.94593,253.44953 C 199.48754,253.1148 200.322,251.81165 200.8003,250.55365 C 201.38569,249.01395 202.91803,247.97243 205.48861,247.36705 L 209.30731,246.46772 L 209.83557,238.50146 C 210.12611,234.12002 210.70666,229.98645 211.1257,229.31576 C 211.54473,228.64507 216.48201,226.62053 222.09744,224.81679 C 231.73771,221.72022 233.14414,221.53546 247.30731,221.50511 C 255.55731,221.48743 263.28958,221.64614 264.49013,221.85781 C 267.24411,222.34337 267.71278,223.61514 268.47927,232.68272 C 269.06583,239.62177 269.2368,240.0352 271.51979,240.0352 C 275.26451,240.0352 277.61902,241.74579 279.82437,246.06864 C 281.431,249.21789 282.41041,250.03836 284.57763,250.05051 C 287.91787,250.06925 288.78294,250.64646 291.67358,254.7852 C 293.29675,257.1092 294.72441,258.0352 296.68427,258.0352 C 299.88006,258.0352 301.65659,259.30635 304.72034,263.7852 C 306.18191,265.92184 307.76046,267.0352 309.32828,267.0352 C 310.90811,267.0352 312.79807,268.38535 314.92755,271.0352 C 317.0208,273.63997 318.95568,275.0352 320.47467,275.0352 C 322.92377,275.0352 325.53921,277.17021 328.35546,281.46834 C 329.5015,283.21743 330.9337,284.0352 332.85089,284.0352 C 335.67769,284.0352 336.41696,284.55049 340.5507,289.40218 C 341.93265,291.02415 343.81558,292.0352 345.45431,292.0352 C 347.25378,292.0352 349.27819,293.28388 351.71092,295.89436 C 354.07045,298.42629 356.54609,299.97995 358.90929,300.4119 C 361.65393,300.91358 362.95004,301.88505 364.35473,304.49339 C 365.36863,306.37609 367.22977,308.1754 368.49059,308.49184 C 369.83563,308.82943 371.61308,310.69432 372.79165,313.0045 L 374.80031,316.9418 L 379.80381,316.34921 C 383.83352,315.87195 384.80731,316.0464 384.80731,317.24557 C 384.80731,318.83656 380.44128,319.24357 348.30731,320.64811 C 340.05731,321.00871 332.84343,321.66657 332.27648,322.11003 C 331.70952,322.55348 323.76752,323.14806 314.6276,323.43132 C 305.48767,323.71458 296.8332,324.24158 295.39544,324.60244 C 293.89172,324.97985 292.18006,324.75952 291.3658,324.08374 C 289.6757,322.68108 266.13058,323.33568 235.03331,325.64988 C 217.78149,326.93373 201.37638,327.22711 200.38448,326.26952 z M 255.55787,321.7114 C 270.63857,320.94853 281.24505,319.99746 281.89253,319.34998 C 282.48879,318.75372 282.82604,317.20881 282.64197,315.91684 C 282.3386,313.78741 281.83989,313.58045 277.30731,313.70298 C 274.55731,313.77733 261.28231,314.10272 247.80731,314.42608 C 215.64159,315.19795 208.39645,315.55306 206.9823,316.42705 C 206.33606,316.82645 205.80731,318.73605 205.80731,320.6706 L 205.80731,324.18796 L 218.05731,323.58833 C 224.79481,323.25854 241.67006,322.41391 255.55787,321.7114 z M 357.58194,317.69979 C 364.33299,317.49051 370.08734,317.08851 370.36938,316.80646 C 370.65143,316.52442 370.36091,315.14957 369.7238,313.75125 L 368.5654,311.20885 L 347.26998,311.29838 L 325.97455,311.38791 L 328.46386,314.65156 C 331.17562,318.20687 332.75825,318.69793 340.30731,318.32639 C 343.05731,318.19105 350.83089,317.90908 357.58194,317.69979 z M 261.55731,311.40341 L 274.80731,310.83031 L 274.80731,308.06428 L 274.80731,305.29825 L 247.55731,305.61624 C 232.56981,305.79113 217.71981,306.02034 214.55731,306.12559 L 208.80731,306.31697 L 208.80731,309.69432 L 208.80731,313.07167 L 228.55731,312.52409 C 239.41981,312.22292 254.26981,311.71861 261.55731,311.40341 z M 351.60571,308.15364 C 362.46424,307.55928 362.85003,307.46152 361.51486,305.6426 C 359.9259,303.47796 356.63555,303.03897 342.80731,303.14674 C 337.58231,303.18746 330.49481,303.20796 327.05731,303.19231 C 320.39324,303.16197 319.62696,303.85485 322.80731,307.0352 C 325.00812,309.23601 328.99967,309.39103 351.60571,308.15364 z M 243.3891,303.0352 L 269.80731,303.0352 L 269.80679,299.7852 L 269.80626,296.5352 L 263.55679,296.16681 C 252.03746,295.48779 221.53814,295.80763 215.55731,296.67018 C 212.23521,297.14928 211.80731,297.53378 211.80731,300.03976 C 211.80731,302.92391 213.25055,304.21062 215.6391,303.45597 C 216.37158,303.22455 228.85908,303.0352 243.3891,303.0352 z M 349.77194,299.39405 C 350.02749,299.14392 349.75396,298.17336 349.16409,297.23724 C 348.23449,295.76193 345.79639,295.49575 330.86193,295.23905 C 312.62851,294.92566 312.82793,294.86699 316.70941,299.40222 C 318.19333,301.13607 319.41296,301.21859 333.80731,300.55903 C 342.33231,300.16841 349.51639,299.64417 349.77194,299.39405 z M 248.05731,293.04037 L 261.80731,293.0352 L 261.80731,289.60842 L 261.80731,286.18164 L 243.55731,286.52884 C 233.51981,286.7198 223.95731,287.06641 222.30731,287.2991 C 220.65731,287.53178 218.29481,287.79259 217.05731,287.87868 C 215.23316,288.00558 214.80731,288.63155 214.80731,291.18602 L 214.80731,294.33685 L 224.55731,293.6912 C 229.91981,293.33609 240.49481,293.04322 248.05731,293.04037 z M 338.21747,292.18056 C 339.05506,290.82532 334.08212,286.71577 332.39022,287.36501 C 331.55485,287.68557 330.61149,287.52738 330.29388,287.01347 C 329.68177,286.02306 306.78384,285.9662 306.84058,286.95523 C 306.85888,287.27421 307.70731,288.53387 308.72599,289.75447 C 310.434,291.80104 311.57917,291.99812 323.44272,292.28714 C 330.51824,292.45951 336.61825,292.69833 336.99829,292.81787 C 337.37833,292.9374 337.92696,292.65061 338.21747,292.18056 z M 238.30731,283.93017 C 254.38052,283.83607 255.80731,283.54842 255.80731,280.40204 C 255.80731,277.17214 252.8665,276.16765 244.78874,276.63841 C 230.30223,277.48268 226.11486,277.70927 222.05731,277.86846 C 219.71981,277.96017 217.8606,278.3727 217.92573,278.7852 C 217.99086,279.1977 217.95742,279.7602 217.85142,280.0352 C 217.74542,280.3102 217.46204,281.59956 217.22169,282.90044 C 216.80424,285.15986 216.97533,285.23751 221.046,284.63598 C 223.38972,284.28964 231.15731,283.97203 238.30731,283.93017 z M 325.47555,282.64696 C 325.56808,282.58376 324.98713,281.63276 324.18455,280.53363 C 322.89318,278.7651 321.37831,278.50205 311.01631,278.24704 C 304.57636,278.08855 299.80244,278.31355 300.40761,278.74704 C 301.01277,279.18053 302.04792,280.56044 302.70794,281.81351 C 303.87856,284.03597 304.1702,284.07551 314.60764,283.42684 C 320.49246,283.0611 325.38302,282.71016 325.47555,282.64696 z M 246.12686,274.05396 C 251.58546,274.03636 251.92659,273.89565 251.62686,271.7852 C 251.31378,269.58079 251.05405,269.53784 238.80731,269.66543 C 220.02915,269.86108 219.80731,269.89804 219.80731,272.83125 L 219.80731,275.32293 L 230.05731,274.69783 C 235.69481,274.35402 242.92611,274.06428 246.12686,274.05396 z M 312.61427,272.87099 C 311.82393,271.68067 310.30654,270.52513 309.2423,270.30311 C 306.23873,269.67653 292.80731,268.97633 292.80731,269.44633 C 292.80731,269.67676 293.81981,271.0204 295.05731,272.43218 C 297.13371,274.80102 297.95324,275.00045 305.67928,275.01713 C 314.04053,275.03518 314.04941,275.03243 312.61427,272.87099 z M 244.4143,265.45341 C 244.08045,264.58343 243.80731,263.07155 243.80731,262.09369 C 243.80731,260.22631 244.57931,260.27117 227.55731,261.14941 C 225.30327,261.26571 223.80731,261.84728 223.80731,262.60726 C 223.80731,263.30266 223.53417,264.58343 223.20032,265.45341 C 222.66906,266.83784 223.99247,267.0352 233.80731,267.0352 C 243.62215,267.0352 244.94556,266.83784 244.4143,265.45341 z M 301.57524,264.0352 C 300.88828,262.9352 299.87196,262.00077 299.31676,261.95869 C 298.76156,261.91661 297.40731,261.64287 296.30731,261.35038 C 293.78537,260.67979 285.80731,260.23348 285.80731,260.76299 C 285.80731,260.98078 286.59481,262.24199 287.55731,263.56567 C 289.10282,265.69113 290.09705,265.97602 296.06578,266.00378 C 302.57715,266.03405 302.77859,265.96207 301.57524,264.0352 z M 234.44946,258.0352 L 239.92804,258.0352 L 239.61768,254.2852 C 239.30745,250.53692 239.30529,250.53528 234.91425,250.7127 C 226.97721,251.03339 225.92785,251.61023 226.12848,255.54224 C 226.25393,258.00072 226.70487,258.8959 227.6391,258.54105 C 228.37158,258.26283 231.43624,258.0352 234.44946,258.0352 z M 289.80731,257.19019 C 289.80731,255.55685 286.27323,253.27411 283.05731,252.8302 C 279.28205,252.30908 279.24218,252.38179 281.55731,255.56567 C 282.77334,257.23801 284.29897,257.98194 286.55731,258.00378 C 288.34481,258.02106 289.80731,257.65494 289.80731,257.19019 z M 233.42917,247.72033 C 234.38012,248.08525 234.80731,247.45107 234.80731,245.67441 C 234.80731,243.45505 234.50875,243.21009 232.64439,243.89976 C 231.44855,244.34213 230.31797,245.77129 230.11578,247.09615 C 229.84009,248.90261 230.03326,249.20925 230.90055,248.34196 C 231.53331,247.7092 232.67119,247.42947 233.42917,247.72033 z M 277.80731,248.18821 C 277.80731,246.86969 273.86362,242.64556 273.22699,243.28219 C 272.91479,243.59439 273.67379,245.01653 274.91367,246.44251 C 277.33421,249.22638 277.80731,249.51179 277.80731,248.18821 z "
         style="fill:#d8d7d0"
         sodipodi:nodetypes="csssssssssssssssssssscccsssssssssssssssssssssscccsssssssccssssscccccscccccscccccccccccccssssccccccsssccssssccccccsscccccssssssccsssssssccsssssccsscccccssssccsssssccsssssccccsssccsssccssssccssc" />
      <path
         id="path1318"
         d="M 204.80731,326.37529 C 196.4064,325.16472 153.12839,323.37516 150.90331,324.14634 C 148.25892,325.06284 140.35522,324.91645 139.37152,323.93274 C 139.0735,323.63473 136.46214,323.72801 133.56849,324.14004 C 126.31025,325.17356 124.80731,325.17467 124.80731,324.14649 C 124.80731,323.29328 126.18967,322.95453 135.54173,321.516 C 139.44559,320.91551 139.85926,320.55598 140.84095,316.91028 C 141.65694,313.87993 142.7121,312.57138 145.35653,311.31034 C 147.46553,310.30462 148.80731,308.94104 148.80731,307.80348 C 148.80731,306.77976 150.13041,305.18283 151.74752,304.25473 C 153.39901,303.30691 155.32865,300.93567 156.14998,298.84477 C 157.13968,296.32523 158.42822,294.91747 160.13728,294.48852 C 161.86406,294.05512 163.15395,292.62612 164.21735,289.96842 C 165.28888,287.29041 166.56756,285.88249 168.32995,285.44016 C 169.96045,285.03093 171.61133,283.37951 172.88427,280.88436 C 174.35733,277.99691 175.68007,276.81065 177.92792,276.36108 C 180.10714,275.92523 181.43516,274.78644 182.59116,272.36228 C 183.48012,270.49811 185.13852,268.73919 186.27649,268.45358 C 187.41446,268.16797 189.23692,266.26949 190.32642,264.23474 C 191.42264,262.18743 193.20052,260.40384 194.30731,260.24106 C 195.63399,260.04595 197.27657,257.93884 199.18633,253.98225 C 201.79851,248.57042 202.41306,247.96197 205.81664,247.41772 L 209.56791,246.81787 L 210.0095,238.40465 C 210.25237,233.77738 210.91621,229.5263 211.4847,228.95781 C 212.0532,228.38931 216.97085,226.50586 222.41282,224.77235 C 231.97742,221.72561 232.87,221.62397 249.18409,221.72398 C 262.08685,221.80308 266.25504,222.14161 266.88546,223.16165 C 267.33898,223.89547 268.01504,227.99221 268.3878,232.26553 C 269.03171,239.64718 269.18725,240.0352 271.50218,240.0352 C 275.26456,240.0352 277.61606,241.73999 279.82437,246.06864 C 281.431,249.21789 282.41041,250.03836 284.57763,250.05051 C 287.91787,250.06925 288.78294,250.64646 291.67358,254.7852 C 293.29675,257.1092 294.72441,258.0352 296.68427,258.0352 C 299.88006,258.0352 301.65659,259.30635 304.72034,263.7852 C 306.18191,265.92184 307.76046,267.0352 309.32828,267.0352 C 310.89854,267.0352 312.78515,268.36927 314.85195,270.94112 C 316.86172,273.44202 319.12691,275.06821 321.14907,275.46186 C 323.30696,275.88193 325.19889,277.33707 327.12216,280.05593 C 329.2943,283.12661 330.59644,284.0352 332.82504,284.0352 C 334.97762,284.0352 336.50792,285.02429 338.83438,287.91926 C 341.19852,290.86111 342.91891,291.95734 345.92644,292.43826 C 349.07638,292.94195 350.32174,293.79278 351.95102,296.5542 C 353.50915,299.19502 354.67255,300.0352 356.77123,300.0352 C 359.90715,300.0352 364.39455,303.15936 365.28404,305.96187 C 365.61126,306.99285 366.89699,308.09188 368.14123,308.40416 C 369.40036,308.72018 371.40821,310.75963 372.66938,313.00357 C 374.83785,316.86185 375.14751,317.0352 379.87129,317.0352 C 382.5861,317.0352 384.80731,317.4852 384.80731,318.0352 C 384.80731,318.5852 383.79481,319.03243 382.55731,319.02905 C 372.37448,319.00121 333.88652,321.36703 332.30731,322.11787 C 330.40957,323.02017 294.81116,323.88001 286.30731,323.22896 C 281.34941,322.84939 243.33754,324.65146 227.80731,326.00234 C 216.5279,326.98347 209.78646,327.09278 204.80731,326.37529 z M 253.30731,322.0709 C 283.79797,320.59806 282.80731,320.7854 282.80731,316.49248 L 282.80731,313.04038 L 266.05731,313.51968 C 221.51794,314.79416 210.13295,315.22612 208.04861,315.72057 C 205.63759,316.29252 204.16292,319.91356 205.21959,322.6672 C 205.90833,324.46203 203.08023,324.4971 253.30731,322.0709 z M 314.74925,309.2852 C 299.13604,289.0457 285.58914,271.18062 277.80731,260.56771 C 273.68231,254.942 268.85856,248.69576 267.08786,246.68718 L 263.86841,243.0352 L 252.83786,243.0352 C 246.77106,243.0352 241.80731,243.25518 241.80731,243.52403 C 241.80731,243.97976 243.42351,246.10534 256.13175,262.36321 C 266.00785,274.99786 274.70265,286.89977 283.28733,299.5352 C 288.14513,306.6852 293.67862,314.4477 295.58397,316.7852 L 299.04823,321.0352 L 311.43086,321.0352 L 323.81348,321.0352 L 314.74925,309.2852 z M 366.54648,317.46183 L 371.78565,316.89399 L 370.34489,314.10788 C 369.07258,311.6475 368.2262,311.26929 363.10572,310.87298 C 359.9166,310.62616 350.14172,310.67418 341.38378,310.9797 L 325.46025,311.5352 L 329.03554,315.32091 L 332.61083,319.10663 L 346.95907,318.56814 C 354.8506,318.27198 363.66494,317.77413 366.54648,317.46183 z M 265.55731,311.40965 L 274.80731,310.84855 L 274.80731,307.94187 L 274.80731,305.0352 L 251.96287,305.0352 C 239.39843,305.0352 224.32343,305.32858 218.46287,305.68717 L 207.80731,306.33913 L 207.80731,309.72051 L 207.80731,313.1019 L 232.05731,312.53633 C 245.39481,312.22526 260.46981,311.71826 265.55731,311.40965 z M 362.41967,307.75742 C 362.84676,307.32964 362.19532,305.97964 360.97203,304.75742 C 358.81659,302.60386 358.15916,302.54032 339.69521,302.70091 C 329.21625,302.79205 320.37785,303.13133 320.05432,303.45485 C 319.7308,303.77838 320.55536,305.20535 321.8867,306.62589 L 324.30731,309.20869 L 342.97522,308.87194 C 353.24258,308.68674 361.99258,308.1852 362.41967,307.75742 z M 246.954,303.0352 L 269.80731,303.0352 L 269.80731,299.65412 L 269.80731,296.27304 L 260.30996,295.56099 C 247.78365,294.62186 214.317,295.94202 212.24513,297.45701 C 211.10146,298.29328 210.8607,299.39975 211.37583,301.45218 C 212.08334,304.27114 212.12975,304.28641 218.09448,303.66297 C 221.3979,303.3177 234.38468,303.0352 246.954,303.0352 z M 340.15175,300.38323 C 346.01231,300.02465 350.80731,299.3818 350.80731,298.95466 C 350.80731,298.52753 350.10017,297.47091 349.23588,296.60663 C 347.92701,295.29775 344.73979,295.0352 330.15982,295.0352 L 312.65519,295.0352 L 314.98125,297.97987 C 317.0887,300.64779 317.88008,300.92974 323.40175,300.97987 C 326.75369,301.0103 334.29119,300.74181 340.15175,300.38323 z M 252.55731,293.07124 L 261.80731,293.0352 L 261.80731,289.41424 L 261.80731,285.79329 L 240.05731,286.26886 C 228.09481,286.53043 217.51981,287.08301 216.55731,287.49681 C 215.4431,287.97583 214.80731,289.34625 214.80731,291.26884 L 214.80731,294.28851 L 229.05731,293.6979 C 236.89481,293.37306 247.46981,293.09106 252.55731,293.07124 z M 338.78507,292.21046 C 338.77284,291.83907 337.98534,290.58544 337.03507,289.42463 C 334.81797,286.71629 325.32251,285.2216 314.08618,285.81222 L 305.86505,286.24435 L 308.26707,289.38977 L 310.66909,292.5352 L 324.7382,292.71046 C 332.47621,292.80686 338.7973,292.58186 338.78507,292.21046 z M 243.05731,284.04231 L 255.80731,284.0352 L 255.80731,280.58051 C 255.80731,277.47449 255.4793,277.06437 252.55731,276.51689 C 250.76981,276.18197 242.36988,276.36876 233.8908,276.93197 C 217.7347,278.00512 216.85213,278.31525 216.82262,282.9298 C 216.80757,285.28341 216.92289,285.31349 223.55731,284.68691 C 227.26981,284.33629 236.04481,284.04622 243.05731,284.04231 z M 325.05108,281.2944 C 324.24511,280.05887 321.73159,278.55113 319.44833,277.93358 C 315.32351,276.81794 301.36149,277.14769 300.11909,278.39009 C 299.75994,278.74924 300.53817,280.18426 301.84848,281.57903 C 304.15967,284.03917 304.56388,284.1063 315.37185,283.82508 L 326.51282,283.5352 L 325.05108,281.2944 z M 242.55731,274.42566 C 251.50179,273.86761 251.80731,273.76906 251.80731,271.44187 C 251.80731,269.04087 251.78053,269.0352 240.44688,269.0352 C 225.21296,269.0352 220.01622,269.80163 219.26811,272.1587 C 218.07635,275.91363 218.32315,275.93765 242.55731,274.42566 z M 313.80731,274.22633 C 313.80731,270.64353 306.02883,268.23516 296.42778,268.84528 L 291.54825,269.15536 L 294.36487,272.09528 C 297.03937,274.88685 297.60096,275.0352 305.4944,275.0352 C 310.0665,275.0352 313.80731,274.67121 313.80731,274.22633 z M 244.79366,265.7852 C 244.78615,265.0977 244.49255,263.4611 244.14123,262.14832 C 243.50776,259.78125 243.42305,259.76701 233.94218,260.43345 C 224.35872,261.1071 222.85343,261.76389 222.82262,265.2852 C 222.80896,266.84673 223.99195,267.0352 233.80731,267.0352 C 241.94793,267.0352 244.80376,266.71027 244.79366,265.7852 z M 301.7776,263.97969 C 300.59762,261.77487 294.99274,260.04853 288.98922,260.04078 L 284.67112,260.0352 L 286.76155,262.97093 C 288.9912,266.10219 291.44335,266.77156 298.53937,266.18593 C 302.31019,265.87473 302.66311,265.63428 301.7776,263.97969 z M 236.55731,258.04621 C 239.69856,258.03557 239.80731,257.89675 239.80731,253.89752 L 239.80731,249.75984 L 234.39239,250.39626 C 226.48364,251.32577 225.80731,251.74935 225.80731,255.77303 C 225.80731,259.28857 225.81616,259.29542 229.55731,258.67705 C 231.61981,258.33614 234.76981,258.05226 236.55731,258.04621 z M 289.80731,257.22633 C 289.80731,255.15608 286.92206,253.21552 282.97097,252.62836 L 278.63463,251.98395 L 280.78906,255.00958 C 282.47042,257.37082 283.69709,258.0352 286.3754,258.0352 C 288.26295,258.0352 289.80731,257.67121 289.80731,257.22633 z M 278.39129,248.7852 C 278.07081,248.0977 277.53472,246.7626 277.19998,245.81832 C 276.63601,244.22737 273.13135,242.37783 272.28479,243.22439 C 271.68219,243.82699 276.85812,250.0352 277.96312,250.0352 C 278.51909,250.0352 278.71177,249.4727 278.39129,248.7852 z M 233.22552,248.42821 C 234.8876,247.79041 235.4727,243.0352 233.8891,243.0352 C 231.43955,243.0352 229.80731,244.47758 229.80731,246.64219 C 229.80731,249.11057 230.50176,249.47342 233.22552,248.42821 z M 254.05731,224.32947 C 252.81981,224.09111 250.79481,224.09111 249.55731,224.32947 C 248.31981,224.56782 249.33231,224.76284 251.80731,224.76284 C 254.28231,224.76284 255.29481,224.56782 254.05731,224.32947 z "
         style="fill:#c8b4ae" />
      <path
         id="path1316"
         d="M 206.80731,326.43386 C 203.97059,325.73537 153.49028,323.1131 152.66768,323.62149 C 151.0776,324.60422 139.8373,324.89273 139.26425,323.96553 C 138.94552,323.44981 137.69982,323.22994 136.49603,323.47693 C 130.46963,324.71341 124.80731,325.06854 124.80731,324.21002 C 124.80731,323.68877 126.94481,322.96915 129.55731,322.61087 C 139.56546,321.23834 139.69293,321.17369 140.848,316.88411 C 141.6884,313.76307 142.65562,312.5787 145.24888,311.49517 C 147.35467,310.61531 148.80415,309.18394 149.20445,307.589 C 149.55196,306.20442 151.14229,304.39621 152.73852,303.57077 C 154.62396,302.59577 155.87959,300.98258 156.32245,298.96625 C 156.81451,296.72595 157.82658,295.57584 159.96062,294.83191 C 162.02425,294.11253 163.38741,292.62586 164.47443,289.90912 C 165.51437,287.31008 166.83839,285.81452 168.45966,285.40761 C 169.93066,285.03841 171.65101,283.30174 172.82467,281.00118 C 174.19912,278.30703 175.62248,277.01507 177.72493,276.55329 C 179.67468,276.12506 181.40115,274.6939 182.77312,272.36857 C 183.91991,270.42492 185.64446,268.62904 186.60546,268.37773 C 187.56647,268.12642 189.24252,266.25905 190.33003,264.228 C 191.52592,261.99454 193.17393,260.41187 194.50024,260.22313 C 195.98408,260.01197 197.06007,258.79937 197.8278,256.47313 C 198.45184,254.58227 199.27081,253.0352 199.64773,253.0352 C 200.02466,253.0352 200.77726,252.0227 201.32018,250.7852 C 201.94411,249.36305 203.68706,248.19436 206.05731,247.60884 C 209.76498,246.69293 209.80796,246.6252 209.86494,241.60884 C 209.89664,238.81834 210.23893,234.75269 210.62559,232.57407 L 211.3286,228.61294 L 221.81795,225.23019 C 232.08531,221.91904 232.66534,221.8486 249.22406,221.90212 C 260.62343,221.93896 266.36762,222.32377 266.83623,223.08199 C 267.2187,223.70085 267.78283,227.52848 268.08984,231.58783 C 268.39685,235.64718 268.93543,239.43348 269.28669,240.00183 C 269.63795,240.57019 271.43708,241.0352 273.28477,241.0352 C 276.10278,241.0352 277.00438,241.63956 278.87913,244.7852 C 281.7276,249.56463 283.5559,251.02566 286.74844,251.07372 C 288.51416,251.1003 289.92723,252.09787 291.30731,254.29211 C 292.77376,256.62368 294.37441,257.68822 297.30731,258.28251 C 300.3673,258.90256 301.96881,260.02625 304.12216,263.06412 C 306.091,265.84167 307.67177,267.0352 309.38167,267.0352 C 311.0912,267.0352 312.6504,268.21195 314.56681,270.9485 C 316.46435,273.65808 318.30312,275.05547 320.5447,275.49145 C 322.66386,275.90361 324.88049,277.48791 326.96207,280.07815 C 329.12836,282.77382 330.93458,284.0352 332.62828,284.0352 C 334.25135,284.0352 336.41091,285.43943 338.84851,288.07983 C 341.47815,290.92824 343.68716,292.30372 346.31757,292.73058 C 349.13318,293.18749 350.52115,294.13074 351.95578,296.56227 C 353.4288,299.05885 354.75672,299.9314 357.8315,300.42308 C 360.89891,300.91358 362.31712,301.84213 364.05569,304.4983 C 365.29408,306.39029 367.32323,308.402 368.56492,308.96877 C 369.8066,309.53554 371.57745,311.58234 372.50013,313.51723 C 374.10824,316.88948 374.39789,317.0352 379.49252,317.0352 C 385.47711,317.0352 386.87202,318.47302 381.05731,318.64813 C 364.66066,319.1419 332.19315,321.49715 331.71811,322.22729 C 331.24537,322.95388 291.07102,323.5774 283.30731,322.97864 C 280.79336,322.78476 243.06495,324.70754 223.80731,326.01098 C 215.83231,326.55076 209.08231,326.94983 208.80731,326.8978 C 208.53231,326.84577 207.63231,326.63699 206.80731,326.43386 z M 233.30731,323.09652 C 241.55731,322.54491 255.43936,321.82423 264.15631,321.49502 C 272.87326,321.1658 280.63576,320.65452 281.40631,320.35884 C 282.22674,320.04401 282.80731,318.41517 282.80731,316.42821 L 282.80731,313.0352 L 273.95441,313.0352 C 260.86309,313.0352 209.66523,314.96883 207.05731,315.56175 C 205.19466,315.98524 204.80731,316.74667 204.80731,319.9847 C 204.80731,324.41063 205.82737,324.91013 213.80731,324.39177 C 216.28231,324.23101 225.05731,323.64814 233.30731,323.09652 z M 295.80731,321.40751 C 295.80731,321.06229 293.62122,317.79979 290.94933,314.15751 C 288.27743,310.51524 281.5262,300.8641 275.94658,292.71053 C 266.06994,278.27768 255.19653,263.85446 249.48922,257.6157 C 246.21207,254.0334 256.40614,269.47104 261.28605,275.48052 C 263.09695,277.71059 266.32975,282.2352 268.47005,285.5352 C 282.31938,306.88862 293.04783,322.0352 294.32331,322.0352 C 295.13951,322.0352 295.80731,321.75274 295.80731,321.40751 z M 323.73896,320.381 C 323.97636,320.17433 322.80222,318.54948 321.12975,316.77022 C 319.45728,314.99096 316.13291,310.8352 313.74227,307.5352 C 311.35163,304.2352 306.85132,298.3852 303.7416,294.5352 C 300.63187,290.6852 296.112,284.79611 293.69743,281.44833 C 284.57241,268.79657 265.9374,244.38805 264.47952,243.17812 C 263.34351,242.23532 260.2024,242.09259 252.00492,242.6113 L 241.04865,243.30458 L 246.98788,250.91989 C 265.07116,274.1064 269.30746,279.80116 279.80731,295.0383 C 295.26073,317.46395 297.56445,320.42793 300.11993,321.17261 C 302.27783,321.80142 322.90129,321.11022 323.73896,320.381 z M 329.80731,320.43431 C 329.80731,319.8041 326.58995,315.69523 305.30731,289.14561 C 298.15731,280.22614 289.2607,269.01493 285.53707,264.2318 C 275.46453,251.29327 268.46871,243.04047 267.98414,243.52503 C 267.74759,243.76159 269.34146,246.11065 271.52608,248.74517 C 273.71071,251.37969 276.34209,254.8852 277.37361,256.5352 C 278.40513,258.1852 282.46523,263.61244 286.39606,268.59574 C 290.32688,273.57903 294.72342,279.42903 296.16614,281.59574 C 297.60886,283.76244 300.60356,287.7852 302.82103,290.5352 C 305.03849,293.2852 310.06046,299.8102 313.98096,305.0352 C 322.44973,316.32186 326.72782,321.0352 328.50348,321.0352 C 329.22059,321.0352 329.80731,320.7648 329.80731,320.43431 z M 287.30731,319.0352 C 286.96739,318.4852 286.49083,318.0352 286.24829,318.0352 C 286.00575,318.0352 285.80731,318.4852 285.80731,319.0352 C 285.80731,319.5852 286.28387,320.0352 286.86633,320.0352 C 287.44879,320.0352 287.64723,319.5852 287.30731,319.0352 z M 369.53042,317.36011 C 371.628,316.86171 371.67127,316.67281 370.29681,314.01489 C 368.99502,311.49751 368.1736,311.1381 362.5737,310.63571 C 359.12718,310.32651 349.35785,310.4024 340.86407,310.80436 L 325.42083,311.5352 L 328.82699,315.40971 L 332.23314,319.28423 L 349.77023,318.58628 C 359.41562,318.20241 368.30771,317.65063 369.53042,317.36011 z M 273.55731,311.48327 C 274.24481,311.27135 274.80731,309.73385 274.80731,308.06659 L 274.80731,305.0352 L 248.95819,305.0352 C 234.74117,305.0352 219.66617,305.32623 215.45819,305.68194 L 207.80731,306.32867 L 207.80731,309.70295 L 207.80731,313.07724 L 240.05731,312.4729 C 257.79481,312.14052 272.86981,311.69519 273.55731,311.48327 z M 280.44012,307.53688 C 279.52156,305.59046 279.16542,305.43081 278.47885,306.65764 C 277.33802,308.69619 278.40489,311.12685 280.14705,310.45833 C 281.27139,310.02687 281.33167,309.42605 280.44012,307.53688 z M 361.66056,308.14706 C 362.69419,307.49208 362.75584,306.80755 361.92159,305.24873 C 360.45147,302.50179 350.22535,301.55736 332.33018,302.51581 L 318.89543,303.23537 L 321.03943,306.13528 L 323.18343,309.0352 L 341.74537,309.01989 C 351.95444,309.01146 360.91627,308.61869 361.66056,308.14706 z M 249.46093,303.0352 L 269.80731,303.0352 L 269.80731,298.87548 L 269.80731,294.71576 L 241.13843,295.33972 C 210.29908,296.01091 210.85185,295.89977 210.82262,301.43494 L 210.80731,304.33469 L 219.96094,303.68494 C 224.99543,303.32758 238.27043,303.0352 249.46093,303.0352 z M 275.80731,302.41559 C 275.80731,302.25813 275.27926,300.97036 274.63387,299.55388 C 273.37412,296.78903 271.69999,297.90882 272.50292,300.97923 C 272.85671,302.3321 275.80731,303.61467 275.80731,302.41559 z M 344.05731,300.38349 C 347.76981,300.03286 350.80731,299.44707 350.80731,299.08173 C 350.80731,298.71638 350.24481,297.66657 349.55731,296.74881 C 348.51925,295.36308 345.84884,295.0075 333.80731,294.65164 C 325.83231,294.41595 317.86672,294.4537 316.106,294.73551 L 312.9047,295.24791 L 315.04406,298.14155 C 317.15785,301.00061 317.30372,301.03512 327.24537,301.02809 C 332.77944,301.02418 340.34481,300.73411 344.05731,300.38349 z M 240.30731,293.65574 L 261.30731,293.18726 L 261.61768,289.61123 L 261.92804,286.0352 L 250.11768,285.85201 C 236.10598,285.63469 236.86032,285.61538 224.66526,286.50348 L 215.02322,287.20566 L 214.41972,290.22314 C 213.65893,294.02707 214.25945,294.99724 217.07358,294.51054 C 218.30213,294.29807 228.75731,293.91341 240.30731,293.65574 z M 268.80731,291.64598 C 268.80731,290.88191 267.92228,289.19441 266.84058,287.89598 L 264.87385,285.5352 L 264.84058,289.2852 C 264.81313,292.37962 265.15695,293.0352 266.80731,293.0352 C 267.90731,293.0352 268.80731,292.41005 268.80731,291.64598 z M 337.89672,290.16077 C 336.11545,287.6592 334.84184,287.1351 328.07863,286.12055 C 323.18504,285.38646 317.63117,285.24738 313.08039,285.74498 L 305.85346,286.5352 L 308.40286,289.7852 L 310.95227,293.0352 L 325.44788,293.0352 L 339.9435,293.0352 L 337.89672,290.16077 z M 242.05731,284.11958 L 255.80731,284.0352 L 255.80731,280.55425 C 255.80731,277.59549 255.39703,276.97033 253.07238,276.38688 C 249.98126,275.61106 219.63599,277.40502 217.92095,278.46497 C 217.30845,278.84352 216.80731,280.61289 216.80731,282.39691 L 216.80731,285.64059 L 222.55731,284.92228 C 225.71981,284.52721 234.49481,284.16599 242.05731,284.11958 z M 325.89709,282.20296 C 323.87962,278.43328 321.69173,277.62255 312.45385,277.22154 C 307.42325,277.00317 302.22551,276.98441 300.90331,277.17985 L 298.4993,277.5352 L 301.2422,280.7852 L 303.9851,284.0352 L 315.43139,284.0352 C 326.21847,284.0352 326.8212,283.92968 325.89709,282.20296 z M 261.1116,279.7852 C 259.42892,276.65497 259.35104,276.62316 258.99843,278.92211 C 258.79707,280.23491 259.2342,281.69052 259.96982,282.1568 C 262.50132,283.7614 262.85459,283.02762 261.1116,279.7852 z M 247.40844,274.43986 C 252.18031,273.9615 252.47938,273.77057 252.04186,271.48184 L 251.57416,269.0352 L 237.94073,269.13488 C 221.44388,269.2555 219.41419,269.70078 218.9941,273.29146 L 218.68089,275.96863 L 230.4941,275.45993 C 236.99137,275.18015 244.60282,274.72112 247.40844,274.43986 z M 311.00806,275.22757 L 314.70881,274.5352 L 312.92558,272.18156 C 311.80784,270.70628 309.49378,269.50966 306.72483,268.97511 C 301.60606,267.98692 291.80731,267.75857 291.80731,268.62747 C 291.80731,268.95322 292.74236,270.41572 293.8852,271.87747 C 296.6652,275.43325 303.13884,276.69982 311.00806,275.22757 z M 236.05731,267.04886 L 244.80731,267.0352 L 244.80731,263.5352 L 244.80731,260.0352 L 239.05731,260.04389 C 235.89481,260.04867 230.94481,260.33635 228.05731,260.68318 C 222.85139,261.30849 222.80731,261.34298 222.80731,264.79112 C 222.80731,267.90925 223.03974,268.20617 225.05731,267.66549 C 226.29481,267.33385 231.24481,267.05637 236.05731,267.04886 z M 302.89709,265.20296 C 302.35777,264.19522 301.21036,262.78467 300.3473,262.06839 C 298.58765,260.60801 284.80731,259.30244 284.80731,260.59611 C 284.80731,261.05242 286.0165,262.68789 287.4944,264.23048 C 289.92627,266.76881 290.83192,267.0352 297.02958,267.0352 C 303.3588,267.0352 303.80338,266.89637 302.89709,265.20296 z M 249.80731,264.0352 C 249.21861,262.9352 248.28694,262.0352 247.73694,262.0352 C 247.09373,262.0352 247.11884,262.74878 247.80731,264.0352 C 248.39601,265.1352 249.32768,266.0352 249.87768,266.0352 C 250.52089,266.0352 250.49578,265.32162 249.80731,264.0352 z M 238.05731,258.04389 C 239.44094,258.03702 239.80731,257.16796 239.80731,253.89274 L 239.80731,249.75029 L 233.72224,250.3863 C 230.37545,250.73611 227.22545,251.27677 226.72224,251.58778 C 226.21903,251.89878 225.80731,253.76436 225.80731,255.73351 L 225.80731,259.31378 L 231.05731,258.68318 C 233.94481,258.33635 237.09481,258.04867 238.05731,258.04389 z M 289.21535,255.5352 C 288.31442,254.1602 287.01029,253.0352 286.3173,253.0352 C 285.62431,253.0352 283.56862,252.73746 281.74912,252.37356 L 278.44093,251.71192 L 280.69221,254.87356 C 282.56951,257.50999 283.6005,258.0352 286.89846,258.0352 L 290.85342,258.0352 L 289.21535,255.5352 z M 243.80731,249.69019 C 243.80731,249.50043 242.79481,248.48793 241.55731,247.44019 L 239.30731,245.5352 L 241.2123,247.7852 C 243.00252,249.89965 243.80731,250.49044 243.80731,249.69019 z M 278.80731,249.48554 C 278.80731,247.3102 275.4374,243.0352 273.72261,243.0352 C 271.48494,243.0352 271.79449,244.07964 275.13039,247.7852 C 277.03394,249.89968 278.80731,250.71975 278.80731,249.48554 z M 235.20006,248.20874 C 236.02683,246.87099 234.67874,243.0352 233.38181,243.0352 C 231.08836,243.0352 228.46811,245.70887 229.11345,247.39059 C 229.76263,249.08234 234.28449,249.69016 235.20006,248.20874 z M 250.46325,235.76617 C 250.18932,235.08914 249.98188,235.8852 250.00226,237.5352 C 250.02264,239.1852 250.24676,239.73914 250.5003,238.76617 C 250.75384,237.7932 250.73717,236.4432 250.46325,235.76617 z M 265.80731,228.5352 C 265.80731,227.7102 265.09155,227.0352 264.21673,227.0352 C 263.34191,227.0352 257.37941,226.84861 250.96673,226.62055 C 239.08318,226.19793 233.80731,226.64993 233.80731,228.09065 C 233.80731,229.39093 237.47764,229.75462 252.05731,229.89902 C 263.67339,230.01407 265.80731,229.80241 265.80731,228.5352 z M 258.5208,224.29512 C 255.33822,224.09607 250.38822,224.09792 247.5208,224.29922 C 244.65338,224.50053 247.25731,224.66339 253.30731,224.66113 C 259.35731,224.65888 261.70338,224.49417 258.5208,224.29512 z "
         style="fill:#a6a19c" />
      <path
         id="path1314"
         d="M 176.30731,324.50099 C 163.52608,323.65945 153.20546,323.44156 149.9368,323.94426 C 146.98302,324.39854 143.05037,324.42832 141.19757,324.01045 C 139.34477,323.59257 135.12399,323.5696 131.81807,323.9594 C 128.51215,324.3492 125.80731,324.30072 125.80731,323.85166 C 125.80731,323.40261 126.68516,323.0352 127.75809,323.0352 C 132.447,323.0352 139.9711,320.75779 140.46989,319.18757 C 142.23839,313.62025 143.26595,312.07097 145.76864,311.19853 C 147.4787,310.60239 148.78603,309.25614 149.18029,307.68527 C 149.53185,306.28454 151.01883,304.55275 152.4847,303.83685 C 154.0337,303.08034 155.61814,301.13147 156.26791,299.18347 C 157.01537,296.94259 158.40548,295.40305 160.46226,294.53823 C 162.43786,293.70756 163.93554,292.10611 164.64793,290.06255 C 165.36882,287.99461 166.7895,286.49074 168.70529,285.76761 C 170.68057,285.02202 172.12947,283.44273 173.09628,280.98146 C 174.2766,277.97667 175.1847,277.18698 178.0855,276.64279 C 180.81846,276.13008 181.86419,275.3108 182.64516,273.0705 C 183.20253,271.47164 184.97864,269.48084 186.59208,268.6465 C 188.20551,267.81216 190.08148,265.7875 190.76089,264.14726 C 191.50421,262.35273 193.15336,260.76162 194.90175,260.15212 C 196.79021,259.4938 197.80731,258.44593 197.80731,257.15865 C 197.80731,256.06932 198.39896,254.58341 199.12208,253.85663 C 199.84521,253.12984 200.92665,251.65647 201.52529,250.58246 C 202.12394,249.50845 204.34479,248.14573 206.46052,247.55418 L 210.30731,246.47865 L 210.80731,237.63625 L 211.30731,228.79384 L 221.80731,225.42521 C 231.99625,222.15636 232.80249,222.05625 249.02213,222.04588 C 268.20605,222.03362 267.79686,221.83394 267.82096,231.21946 C 267.84316,239.85834 268.44469,241.0352 272.83817,241.0352 C 276.31841,241.0352 276.89286,241.45303 279.71229,246.0352 C 282.39463,250.39455 283.20933,251.0352 286.07066,251.0352 C 288.78824,251.0352 289.67278,251.62993 291.21531,254.49423 C 292.75892,257.36054 293.80351,258.06204 297.31132,258.58807 C 300.91108,259.12789 301.87301,259.80737 303.73989,263.12904 C 305.39047,266.06585 306.56432,267.0352 308.47008,267.0352 C 310.83572,267.0352 316.80731,272.06783 316.80731,274.0615 C 316.80731,274.50963 318.26981,275.18435 320.05731,275.56086 C 322.04707,275.97997 324.89365,277.94961 327.39827,280.64031 C 330.15938,283.60654 332.31503,285.0352 334.02958,285.0352 C 335.7571,285.0352 337.42309,286.15375 339.23632,288.53101 C 341.24354,291.16262 342.90954,292.18782 345.97551,292.67809 C 349.19969,293.19365 350.46106,294.0289 352.02918,296.68667 C 353.5897,299.33156 354.86291,300.18036 358.02918,300.68667 C 361.21806,301.19659 362.46677,302.03858 364.07398,304.7626 C 365.1881,306.65089 367.16128,308.59948 368.45882,309.09281 C 369.75637,309.58613 371.57394,311.57499 372.49787,313.51248 C 374.11114,316.89555 374.39833,317.03928 379.74252,317.13824 C 391.02104,317.34708 365.9509,319.9447 348.98829,320.32481 C 337.55304,320.58106 332.41149,321.05762 331.88462,321.91011 C 331.32747,322.81159 325.16447,323.12734 308.2193,323.12255 C 295.61771,323.11899 284.40731,323.04666 283.30731,322.96182 C 282.20731,322.87698 271.63231,323.33002 259.80731,323.96859 C 225.53402,325.8194 198.90939,325.98915 176.30731,324.50099 z M 237.16326,322.97189 C 242.58404,322.45671 252.03404,321.9826 258.16326,321.91832 C 264.29249,321.85403 272.23231,321.51653 275.80731,321.16832 L 282.30731,320.5352 L 282.6271,316.62704 L 282.9469,312.71889 L 252.1271,313.48856 C 235.17622,313.91188 217.70731,314.54555 213.30731,314.89671 L 205.30731,315.5352 L 205.0039,319.70159 C 204.76217,323.02095 205.06712,323.97067 206.5039,324.37312 C 208.61985,324.96581 223.18963,324.29992 237.16326,322.97189 z M 295.51947,320.72749 C 295.24347,320.00824 292.12912,315.39574 288.59869,310.47749 C 285.06826,305.55923 278.66309,296.3602 274.36497,290.0352 C 270.06685,283.7102 264.92056,276.52838 262.92876,274.07559 C 260.93696,271.62281 257.73231,267.52134 255.80731,264.96121 C 249.59995,256.70581 238.51845,243.0352 238.03392,243.0352 C 237.77512,243.0352 238.18075,243.8817 238.93534,244.91632 C 239.68992,245.95093 243.64392,251.46343 247.72199,257.16632 C 251.80006,262.8692 257.0121,270.0102 259.30429,273.0352 C 262.84155,277.7033 272.04852,291.25411 286.82165,313.5352 C 288.645,316.2852 290.80743,319.3227 291.62705,320.2852 C 293.36024,322.32051 296.25708,322.64967 295.51947,320.72749 z M 323.62088,320.514 C 323.94949,320.22832 319.64225,314.56119 306.30731,297.73418 C 301.90731,292.18194 296.28231,284.84465 293.80731,281.42912 C 286.63601,271.5326 276.80064,258.46781 270.28845,250.18788 L 264.2696,242.5352 L 257.78845,242.21621 C 254.22382,242.04077 248.94885,242.18515 246.06629,242.53705 L 240.82527,243.17687 L 246.75525,250.85603 C 250.01674,255.07958 256.35495,263.2602 260.84017,269.0352 C 265.32538,274.8102 273.30057,285.8352 278.56281,293.5352 C 292.71567,314.24443 297.7068,320.85153 299.60432,321.38927 C 301.25292,321.85647 322.98785,321.06435 323.62088,320.514 z M 287.69924,317.7852 C 286.4649,315.9977 285.30926,314.3477 285.13115,314.11853 C 284.95304,313.88937 284.80731,315.35187 284.80731,317.36853 C 284.80731,320.6389 285.08487,321.0352 287.3754,321.0352 L 289.9435,321.0352 L 287.69924,317.7852 z M 329.61401,319.20179 C 328.89533,318.19341 326.62126,315.38091 324.56054,312.95179 C 322.49982,310.52266 316.56283,303.01359 311.36722,296.26495 C 306.17162,289.51632 298.5248,279.96974 294.3743,275.05032 C 290.22379,270.13091 284.46078,262.8415 281.56762,258.85163 C 278.67445,254.86176 275.63231,250.87561 274.80731,249.99351 C 273.98231,249.11142 272.03264,246.92212 270.4747,245.1284 C 266.56067,240.622 265.87147,242.02696 269.69135,246.72529 C 271.39501,248.82074 280.33055,260.57738 289.54811,272.85116 C 325.6028,320.86032 325.65477,320.92435 328.61401,320.98665 C 330.66156,321.02974 330.77391,320.82922 329.61401,319.20179 z M 370.24892,317.41923 C 372.28303,316.63867 372.21444,315.75965 369.89601,312.89598 C 368.02251,310.58189 367.62205,310.53205 349.64601,310.37602 C 331.79456,310.22107 325.80246,310.60466 325.81194,311.90178 C 325.81448,312.25016 327.2505,314.06534 329.00309,315.9355 L 332.18962,319.3358 L 350.44007,318.67652 C 360.47782,318.31392 369.3918,317.74814 370.24892,317.41923 z M 242.83591,312.39532 L 274.80731,311.71463 L 274.80731,308.37491 C 274.80731,305.90014 274.35408,305.00852 273.05731,304.93219 C 267.10808,304.58199 218.29741,305.2128 213.55731,305.70114 L 207.80731,306.29353 L 207.80731,310.27135 C 207.80731,313.42943 208.12232,314.1283 209.33591,313.6626 C 210.17664,313.33998 225.25164,312.76971 242.83591,312.39532 z M 281.25094,308.2852 C 275.55722,299.52018 272.48197,295.0352 272.16573,295.0352 C 271.9686,295.0352 271.80731,296.8352 271.80731,299.0352 C 271.80731,302.6352 272.05731,303.0352 274.30731,303.0352 C 276.55731,303.0352 276.80731,303.4352 276.80731,307.0352 C 276.80731,310.8458 276.95481,311.0352 279.92232,311.0352 L 283.03733,311.0352 L 281.25094,308.2852 z M 362.80731,307.72633 C 362.80731,307.00645 362.19257,305.57675 361.44122,304.54922 C 360.24972,302.91974 358.2795,302.62367 346.02531,302.23258 C 338.29792,301.98597 329.00788,302.102 325.3808,302.49043 L 318.78609,303.19666 L 320.86479,306.11593 L 322.9435,309.0352 L 342.8754,309.0352 C 358.63239,309.0352 362.80731,308.76105 362.80731,307.72633 z M 269.75292,302.36874 C 270.51614,301.69833 270.76693,298.61654 270.2073,296.7852 C 269.71963,295.18932 267.89504,295.04453 249.48992,295.14109 C 238.38949,295.19932 225.25731,295.53683 220.30731,295.89109 L 211.30731,296.5352 L 210.99955,300.24151 L 210.69179,303.94782 L 239.99955,303.35399 C 256.11882,303.02739 269.50783,302.58402 269.75292,302.36874 z M 351.80731,300.02599 C 351.80731,299.60292 350.94736,298.19441 349.89631,296.89598 C 348.04086,294.60382 347.4741,294.52506 330.39631,294.18625 C 320.72236,293.99433 312.80731,294.12505 312.80731,294.47674 C 312.80731,294.82844 313.80732,296.46878 315.02956,298.12194 L 317.25182,301.1277 L 334.52956,300.96146 C 344.03232,300.87002 351.80731,300.44906 351.80731,300.02599 z M 243.46245,293.98321 C 263.02815,293.97109 262.80731,294.03315 262.80731,288.54674 C 262.80731,286.32375 262.37996,286.18901 253.05731,285.47261 C 241.65501,284.5964 215.74126,286.54292 214.58383,288.36256 C 214.17359,289.00751 213.83105,290.83083 213.82262,292.41437 L 213.80731,295.29353 L 219.55731,294.644 C 222.71981,294.28675 233.47713,293.9894 243.46245,293.98321 z M 265.36285,284.86486 C 256.9066,272.32805 253.41462,267.96891 254.28434,271.0352 C 254.67434,272.4102 255.85156,274.15259 256.90037,274.90717 C 258.21262,275.85128 258.80731,277.48854 258.80731,280.15717 C 258.80731,283.58083 259.08769,284.0352 261.20032,284.0352 C 263.82092,284.0352 264.80731,285.68021 264.80731,290.05057 C 264.80731,292.41291 265.27929,292.96043 267.55731,293.24074 C 269.06981,293.42686 270.45896,293.49259 270.64432,293.38683 C 270.82967,293.28106 268.45301,289.44617 265.36285,284.86486 z M 338.89709,291.20296 C 337.13479,287.91007 335.16686,287.01227 327.18132,285.85803 C 321.93344,285.09949 317.00492,285.02263 312.404,285.62755 L 305.50068,286.5352 L 308.24289,289.7852 L 310.9851,293.0352 L 325.43139,293.0352 C 339.12691,293.0352 339.82672,292.93998 338.89709,291.20296 z M 238.10835,284.31081 L 255.90939,283.72233 L 255.60835,280.12877 L 255.30731,276.5352 L 239.30731,276.77502 C 218.91814,277.08063 217.40742,277.46711 216.989,282.48457 C 216.71041,285.82534 216.89757,286.21412 218.489,285.60045 C 219.48907,285.21482 228.31778,284.63448 238.10835,284.31081 z M 326.80731,283.20951 C 326.80731,282.75539 325.64736,281.29289 324.22964,279.95951 C 321.86643,277.73691 320.70161,277.50724 310.22964,277.19915 C 303.94736,277.01432 298.80731,277.21469 298.80731,277.64443 C 298.80731,278.07416 300.0165,279.68789 301.4944,281.23048 C 304.12842,283.97981 304.40491,284.0352 315.4944,284.0352 C 321.7165,284.0352 326.80731,283.66364 326.80731,283.20951 z M 249.55731,274.4367 C 252.98664,273.91742 253.12055,273.69609 251.89783,270.56822 C 251.18058,268.73342 250.2613,268.61913 238.21811,268.86745 C 220.24895,269.23796 218.80731,269.5552 218.80731,273.13891 L 218.80731,276.02003 L 232.55731,275.47443 C 240.11981,275.17435 247.76981,274.70738 249.55731,274.4367 z M 314.80731,275 C 314.80731,274.59122 314.01981,273.28471 313.05731,272.09663 C 310.93361,269.47521 305.43066,268.09095 297.00642,268.05906 L 290.70553,268.0352 L 293.32935,271.47521 C 294.77245,273.36721 296.93285,275.11632 298.13024,275.36212 C 301.68084,276.09097 314.80731,275.80595 314.80731,275 z M 239.35651,267.04389 L 245.40571,267.0352 L 244.9971,263.5352 L 244.5885,260.0352 L 237.4479,260.04621 C 233.52058,260.05226 228.61981,260.33614 226.55731,260.67705 C 223.05432,261.25606 222.80731,261.52799 222.80731,264.80533 L 222.80731,268.31378 L 228.05731,267.68318 C 230.94481,267.33635 236.02945,267.04867 239.35651,267.04389 z M 249.19427,261.7852 C 247.11341,258.8977 244.60009,255.46201 243.6091,254.15034 L 241.80731,251.76548 L 241.80731,254.23983 C 241.80731,255.90871 242.62113,257.08497 244.30731,257.85325 C 246.27039,258.74768 246.80731,259.73287 246.80731,262.44044 C 246.80731,265.81184 247.62607,266.57025 251.64248,266.9192 C 252.39557,266.98463 251.32827,264.74644 249.19427,261.7852 z M 302.57129,264.7852 C 301.75732,263.5477 300.01493,261.97933 298.69932,261.29994 C 296.37169,260.09793 284.80731,259.49503 284.80731,260.57569 C 284.80731,260.87296 285.79194,262.44796 286.99537,264.07569 C 289.07859,266.89341 289.53959,267.0352 296.61734,267.0352 L 304.05125,267.0352 L 302.57129,264.7852 z M 240.33351,257.78374 C 240.43799,257.64704 240.30612,255.78788 240.04046,253.65226 L 239.55746,249.76932 L 233.04005,250.37793 C 229.45548,250.71266 226.40183,251.10998 226.25416,251.26087 C 226.1065,251.41175 225.65707,253.2941 225.25544,255.44386 L 224.5252,259.35252 L 232.33438,258.6924 C 236.62943,258.32934 240.22904,257.92044 240.33351,257.78374 z M 289.62673,255.53821 C 288.63153,253.354 285.24289,252.0352 280.62577,252.0352 C 278.75951,252.0352 278.75316,252.13495 280.43781,254.98683 C 282.13802,257.86507 285.22342,259.02562 288.99067,258.20395 C 290.36408,257.90439 290.4812,257.41357 289.62673,255.53821 z M 278.80731,249.48554 C 278.80731,247.35918 275.43835,243.0352 273.78163,243.0352 C 271.14641,243.0352 271.29112,243.88698 274.4944,247.23048 C 276.99064,249.83599 278.80731,250.78586 278.80731,249.48554 z M 235.62373,245.7852 C 235.87486,243.60267 235.53062,243.0352 233.95552,243.0352 C 230.72857,243.0352 228.80731,244.1325 228.80731,245.97552 C 228.80731,248.41884 229.85164,249.17143 232.76989,248.83111 C 234.70342,248.60562 235.38262,247.88072 235.62373,245.7852 z M 250.49664,236.2852 C 250.24511,235.3227 250.03931,236.1102 250.03931,238.0352 C 250.03931,239.9602 250.24511,240.7477 250.49664,239.7852 C 250.74816,238.8227 250.74816,237.2477 250.49664,236.2852 z M 240.05731,232.37292 C 239.36981,232.09551 238.24481,232.09551 237.55731,232.37292 C 236.86981,232.65033 237.43231,232.87731 238.80731,232.87731 C 240.18231,232.87731 240.74481,232.65033 240.05731,232.37292 z M 254.99481,232.35209 C 254.27293,232.06322 253.41044,232.09874 253.07814,232.43103 C 252.74585,232.76333 253.33648,232.99967 254.39064,232.95625 C 255.55559,232.90827 255.79254,232.67131 254.99481,232.35209 z M 260.53828,232.34221 C 259.56531,232.08867 258.21531,232.10534 257.53828,232.37926 C 256.86125,232.65319 257.65731,232.86063 259.30731,232.84025 C 260.95731,232.81987 261.51125,232.59575 260.53828,232.34221 z M 264.99481,232.35209 C 264.27293,232.06322 263.41044,232.09874 263.07814,232.43103 C 262.74585,232.76333 263.33648,232.99967 264.39064,232.95625 C 265.55559,232.90827 265.79254,232.67131 264.99481,232.35209 z M 265.63063,228.37765 C 265.35134,226.94584 263.41981,226.68251 251.44782,226.44403 C 237.91816,226.17453 232.05638,227.01116 233.30615,229.03333 C 233.67801,229.63501 240.32218,230.0352 249.93965,230.0352 C 264.31447,230.0352 265.92086,229.86551 265.63063,228.37765 z M 257.60479,224.29275 C 253.36841,224.10576 246.16841,224.10473 241.60479,224.29045 C 237.04118,224.47616 240.50731,224.62914 249.30731,224.63041 C 258.10731,224.63168 261.84118,224.47973 257.60479,224.29275 z "
         style="fill:#a99971" />
      <path
         id="path1312"
         d="M 194.80731,325.47286 C 187.65638,324.40034 153.64162,323.2657 149.41624,323.95873 C 146.72616,324.39995 143.0185,324.42114 141.17701,324.00581 C 139.33551,323.59049 135.12399,323.5696 131.81807,323.9594 C 128.51215,324.3492 125.80731,324.35257 125.80731,323.96689 C 125.80731,323.58121 128.39481,322.94327 131.55731,322.54925 C 138.93579,321.62996 140.40698,320.78684 141.15451,317.0492 C 141.56732,314.98516 142.87763,313.33625 145.18846,311.97282 C 147.07086,310.86218 148.88292,308.8701 149.21525,307.54598 C 149.54758,306.22186 151.01883,304.55275 152.4847,303.83685 C 154.06187,303.06658 155.62061,301.12446 156.30291,299.07952 C 157.1631,296.5014 158.22494,295.42455 160.48419,294.83912 C 162.76145,294.24903 163.7385,293.24602 164.42385,290.79481 C 165.0395,288.59292 166.36299,287.04846 168.50252,286.0352 C 170.51807,285.08065 172.19153,283.22118 173.10452,280.92164 C 174.2707,277.98441 175.20297,277.18356 178.0855,276.64279 C 180.81846,276.13008 181.86419,275.3108 182.64516,273.0705 C 183.20253,271.47164 184.97864,269.48084 186.59208,268.6465 C 188.20551,267.81216 190.08148,265.7875 190.76089,264.14726 C 191.50421,262.35273 193.15336,260.76162 194.90175,260.15212 C 196.49981,259.59504 197.80731,258.46081 197.80731,257.63163 C 197.80731,254.4033 202.91074,248.54803 206.63195,247.50692 L 210.30731,246.47865 L 210.80731,237.63625 L 211.30731,228.79384 L 221.80731,225.42521 C 231.99625,222.15636 232.80249,222.05625 249.02213,222.04588 C 268.20605,222.03362 267.79686,221.83394 267.82096,231.21946 C 267.84293,239.77026 268.46572,241.03229 272.67394,241.05361 C 275.90938,241.07001 276.63587,241.59024 279.30731,245.80361 C 281.85048,249.81469 282.84768,250.58063 285.85595,250.83356 C 288.72552,251.07483 289.75608,251.78459 291.24136,254.54259 C 292.75711,257.35717 293.81798,258.06421 297.31132,258.58807 C 300.91108,259.12789 301.87301,259.80737 303.73989,263.12904 C 305.37512,266.03854 306.57122,267.0352 308.42767,267.0352 C 310.67987,267.0352 316.80731,272.25867 316.80731,274.17861 C 316.80731,274.56233 318.26981,275.18435 320.05731,275.56086 C 322.04707,275.97997 324.89365,277.94961 327.39827,280.64031 C 329.95528,283.38728 332.35639,285.0352 333.80188,285.0352 C 335.21784,285.0352 337.54634,286.58613 339.80731,289.0352 C 342.6301,292.09284 344.251,293.0352 346.68743,293.0352 C 349.27085,293.0352 350.26652,293.69919 351.9424,296.53959 C 353.59336,299.33775 354.82001,300.1735 358.02918,300.68667 C 361.21806,301.19659 362.46677,302.03858 364.07398,304.7626 C 365.1881,306.65089 367.16128,308.59948 368.45882,309.09281 C 369.75637,309.58613 371.57394,311.57499 372.49787,313.51248 C 374.11009,316.89334 374.40183,317.03973 379.74252,317.14766 C 390.56583,317.36639 365.26481,319.92473 348.52483,320.30427 C 337.70054,320.54968 332.42138,321.04161 331.92086,321.85148 C 331.39016,322.71017 324.97497,323.04311 308.74716,323.05417 C 296.40524,323.06259 285.18231,322.99744 283.80731,322.90939 C 282.43231,322.82135 271.18231,323.30304 258.80731,323.97982 C 235.21544,325.27004 199.07623,326.11312 194.80731,325.47286 z M 231.30731,323.52829 C 241.20731,322.71427 253.80731,321.99272 259.30731,321.92484 C 264.80731,321.85697 272.23231,321.51653 275.80731,321.16832 L 282.30731,320.5352 L 282.62711,316.627 L 282.9469,312.71879 L 251.12711,313.46409 C 233.62622,313.87401 216.15731,314.5077 212.30731,314.8723 L 205.30731,315.5352 L 204.98685,318.8804 C 204.31078,325.93781 203.57764,325.80835 231.30731,323.52829 z M 202.80731,319.6838 L 202.80731,315.33241 L 191.41199,314.77119 C 185.14456,314.46252 176.36956,314.45995 171.91199,314.76548 L 163.80731,315.32099 L 163.80731,318.67809 C 163.80731,321.20092 164.2422,322.04025 165.55731,322.05554 C 172.24789,322.13329 195.38612,323.36993 195.72398,323.66782 C 195.95314,323.86988 197.64064,324.0352 199.47398,324.0352 C 202.74106,324.0352 202.80731,323.94872 202.80731,319.6838 z M 146.80731,317.5352 C 148.82638,314.60058 149.43137,313.0352 148.54648,313.0352 C 146.33863,313.0352 144.13666,315.3127 142.98718,318.7852 C 141.46706,323.37736 143.17153,322.81963 146.80731,317.5352 z M 155.90077,316.81034 C 158.32437,313.93667 164.46005,306.47423 169.53563,300.22714 C 180.10133,287.22271 197.00126,268.77552 210.77571,255.21133 C 218.88928,247.22162 219.81937,245.98561 217.27571,246.57335 C 215.15487,247.06339 207.85855,253.86578 191.72192,270.39722 C 171.50378,291.11003 146.80731,319.05351 146.80731,321.21705 C 146.80731,321.66703 147.86187,322.0352 149.15077,322.0352 C 150.74746,322.0352 152.89845,320.37022 155.90077,316.81034 z M 295.80731,321.179 C 295.80731,320.70809 294.31176,318.34559 292.48387,315.929 C 290.65597,313.51241 284.71401,305.0102 279.2795,297.0352 C 265.30524,276.52832 246.98652,252.52266 246.03676,253.47242 C 245.58354,253.92563 255.55313,268.70584 260.24407,274.5352 C 262.01443,276.7352 269.44887,287.5352 276.76504,298.5352 C 284.08121,309.5352 290.75344,319.3227 291.59222,320.2852 C 293.18035,322.10757 295.80731,322.66461 295.80731,321.179 z M 323.64686,320.48802 C 323.9851,320.19058 322.27491,317.93206 306.68345,298.08572 C 302.16839,292.33851 296.63669,285.10582 294.39078,282.01308 C 290.16732,276.19713 267.16005,245.74805 265.19707,243.37652 C 263.98526,241.9125 244.31773,241.42289 242.14917,242.80276 C 241.38688,243.28781 245.6329,249.52038 254.57177,261.03744 C 262.04118,270.66121 272.63333,285.0602 278.10987,293.0352 C 292.59584,314.12982 297.68717,320.84597 299.60432,321.38927 C 301.30031,321.8699 323.00046,321.05645 323.64686,320.48802 z M 288.11385,317.95832 C 285.17947,312.9605 284.22492,312.72551 284.64245,317.10373 C 284.9671,320.50793 285.34616,321.0352 287.46888,321.0352 L 289.92038,321.0352 L 288.11385,317.95832 z M 330.06994,319.7852 C 329.5297,319.0977 323.08536,310.8852 315.74919,301.5352 C 308.41302,292.1852 298.28223,279.5852 293.23634,273.5352 C 288.19044,267.4852 282.19497,259.85923 279.91305,256.58859 C 275.31503,249.9983 267.83747,241.6717 267.14187,242.3673 C 266.72388,242.7853 269.43806,246.56761 284.38335,266.39385 C 287.64153,270.71611 291.80963,276.34111 293.64581,278.89385 C 295.48198,281.44659 300.11225,287.45769 303.93529,292.25185 C 309.7854,299.58799 319.1929,311.80391 324.67928,319.18854 C 325.43387,320.2042 327.17647,321.0352 328.55173,321.0352 C 330.40931,321.0352 330.79965,320.71382 330.06994,319.7852 z M 371.05654,317.18597 C 371.52213,316.72038 371.38249,315.19692 370.74623,313.80049 C 369.92007,311.98727 368.54863,311.0894 365.94835,310.65937 C 361.24546,309.8816 329.99042,309.87937 327.0913,310.6566 C 324.90405,311.24298 324.91703,311.30234 328.0913,315.23105 L 331.30731,319.21142 L 350.75867,318.62195 C 361.45691,318.29775 370.59096,317.65155 371.05654,317.18597 z M 243.55731,312.42576 L 274.80731,311.72205 L 274.80731,308.37862 C 274.80731,306.4375 274.28304,304.98255 273.55731,304.90968 C 269.74844,304.5272 217.47774,305.19791 213.05731,305.68598 L 207.80731,306.26565 L 207.80731,310.25883 C 207.80731,313.89955 208.00591,314.20247 210.05731,313.69075 C 211.29481,313.38205 226.36981,312.81281 243.55731,312.42576 z M 205.80731,309.01213 L 205.80731,304.98905 L 188.05731,305.26213 L 170.30731,305.5352 L 169.99695,309.2852 L 169.68658,313.0352 L 187.74695,313.0352 L 205.80731,313.0352 L 205.80731,309.01213 z M 283.16871,310.7852 C 280.58827,306.52217 272.62927,295.0352 272.25597,295.0352 C 272.00921,295.0352 271.80731,296.8039 271.80731,298.96565 C 271.80731,302.28032 272.15981,302.94616 274.05731,303.21565 C 275.85668,303.4712 276.36874,304.27405 276.61404,307.22425 C 276.87501,310.36289 277.32262,310.97464 279.61404,311.32442 C 281.09534,311.55053 282.67137,311.80296 283.11633,311.88537 C 283.56129,311.96778 283.58486,311.4727 283.16871,310.7852 z M 154.63337,307.97987 C 156.15996,306.04729 156.50366,305.04046 155.63337,305.05051 C 153.57207,305.07432 152.14117,306.32916 151.3747,308.7852 C 150.41225,311.86925 151.83974,311.51647 154.63337,307.97987 z M 363.24293,308.13936 C 363.54744,307.64666 362.96548,306.21715 361.94968,304.96269 C 360.22162,302.82863 359.19776,302.65297 346.03913,302.23302 C 338.30414,301.98617 329.00788,302.102 325.3808,302.49043 L 318.78609,303.19666 L 320.86479,306.11593 L 322.9435,309.0352 L 342.81639,309.0352 C 353.74648,309.0352 362.93842,308.63207 363.24293,308.13936 z M 269.62118,302.45845 C 270.44568,302.20148 270.81815,300.83587 270.62118,298.79208 L 270.30731,295.5352 L 251.30731,295.2749 C 240.85731,295.13174 227.58231,295.35674 221.80731,295.7749 L 211.30731,296.5352 L 210.99609,300.29947 L 210.68488,304.06374 L 239.49609,303.46584 C 255.34226,303.137 268.89855,302.68367 269.62118,302.45845 z M 162.93512,297.79639 C 163.45353,296.82774 163.49785,296.0352 163.03362,296.0352 C 161.40455,296.0352 159.00205,298.55978 158.27538,301.0352 L 157.54151,303.5352 L 159.76703,301.54639 C 160.99107,300.45254 162.41671,298.76504 162.93512,297.79639 z M 208.98508,299.63816 L 209.38167,296.24113 L 200.06904,295.54293 C 194.94709,295.15892 188.11322,295.15151 184.88266,295.52645 C 179.3518,296.16838 178.98391,296.37858 178.58047,299.12738 C 178.34483,300.73294 178.37446,302.26902 178.64633,302.54089 C 178.9182,302.81276 185.76641,303.0352 193.86457,303.0352 L 208.5885,303.0352 L 208.98508,299.63816 z M 351.80731,300.14598 C 351.80731,299.65692 350.94736,298.19441 349.89631,296.89598 C 348.04086,294.60382 347.4741,294.52506 330.39631,294.18625 C 320.72236,293.99433 312.80731,294.14986 312.80731,294.53188 C 312.80731,294.9139 313.73795,296.53343 314.8754,298.13083 L 316.9435,301.0352 L 334.3754,301.0352 C 343.96295,301.0352 351.80731,300.63505 351.80731,300.14598 z M 261.61815,293.47779 C 262.46646,293.20177 262.81931,291.74784 262.61815,289.35735 L 262.30731,285.66342 L 250.33945,285.25773 C 236.79811,284.79871 215.6805,286.64345 214.57262,288.38217 C 214.16854,289.01634 213.83105,290.68674 213.82262,292.09418 L 213.80731,294.65317 L 237.05731,294.27873 C 249.84481,294.0728 260.89719,293.71237 261.61815,293.47779 z M 212.30597,290.5352 L 212.30731,287.5352 L 204.30731,287.22007 C 199.90731,287.04674 193.94481,287.19162 191.05731,287.54202 C 186.3837,288.10917 185.80731,288.43873 185.80731,290.5438 C 185.80731,293.36247 187.35124,293.64658 202.30597,293.57983 L 212.30464,293.5352 L 212.30597,290.5352 z M 268.23645,288.2852 C 265.13978,283.38313 257.38817,272.72215 254.63967,269.5852 C 254.16845,269.04738 253.80731,269.84728 253.80731,271.42882 C 253.80731,273.35635 254.41109,274.38033 255.75484,274.73173 C 257.21972,275.1148 257.77733,276.26878 258.00484,279.38811 C 258.27412,283.08009 258.6091,283.56993 261.05731,283.85162 C 263.64295,284.14913 263.80731,284.46291 263.80731,289.10162 L 263.80731,294.0352 L 267.83804,294.0352 L 271.86877,294.0352 L 268.23645,288.2852 z M 169.64919,290.0352 C 171.27212,287.84007 171.48957,287.0352 170.45969,287.0352 C 168.90931,287.0352 167.4524,288.59652 166.49393,291.2852 C 165.52202,294.01156 167.20115,293.34635 169.64919,290.0352 z M 338.89709,291.20296 C 337.34115,288.29565 335.66771,287.34476 330.00809,286.152 C 324.13693,284.91467 315.31432,284.78138 309.54225,285.84283 L 305.77719,286.5352 L 308.04225,289.76792 L 310.30731,293.00064 L 325.09249,293.01792 C 339.1193,293.03431 339.82738,292.94122 338.89709,291.20296 z M 238.60856,284.34741 L 255.9098,283.72927 L 255.60856,280.13223 L 255.30731,276.5352 L 238.73839,276.74111 C 218.889,276.98778 216.80731,277.54647 216.80731,282.62708 C 216.80731,285.92969 217.01664,286.20785 219.05731,285.61701 C 220.29481,285.2587 229.09287,284.68738 238.60856,284.34741 z M 215.0129,281.39988 L 215.4373,277.76456 L 204.95863,278.44202 C 199.19536,278.81462 194.10361,279.35208 193.64363,279.63636 C 193.18365,279.92064 192.80731,281.25168 192.80731,282.59422 C 192.80731,285.03277 192.81815,285.0352 203.6979,285.0352 L 214.5885,285.0352 L 215.0129,281.39988 z M 178.26467,279.18681 C 176.45082,278.81891 174.84825,280.57542 174.82262,282.95951 C 174.8122,283.92887 175.63383,283.60944 177.39484,281.95951 C 179.6045,279.88924 179.73153,279.48432 178.26467,279.18681 z M 326.80731,283.20951 C 326.80731,282.75539 325.64736,281.29289 324.22964,279.95951 C 321.86643,277.73691 320.70161,277.50724 310.22964,277.19915 C 303.94736,277.01432 298.80731,277.21469 298.80731,277.64443 C 298.80731,278.07416 300.0165,279.68789 301.4944,281.23048 C 304.12842,283.97981 304.40491,284.0352 315.4944,284.0352 C 321.7165,284.0352 326.80731,283.66364 326.80731,283.20951 z M 217.469,275.65691 C 217.55794,275.58997 217.39298,274.2977 217.10243,272.7852 C 216.62724,270.31156 216.15877,270.03631 212.44073,270.04621 C 210.16735,270.05226 206.61981,270.33614 204.55731,270.67705 C 201.21558,271.2294 200.80731,271.61674 200.80731,274.23477 L 200.80731,277.17265 L 209.05731,276.47564 C 213.59481,276.09228 217.38007,275.72386 217.469,275.65691 z M 252.09447,274.07234 C 252.52741,273.68104 252.45719,272.24452 251.93844,270.88009 C 250.99659,268.40284 250.97835,268.3998 239.15128,268.74802 C 232.63709,268.93982 225.39481,269.33547 223.05731,269.62725 C 219.1641,270.11321 218.80731,270.39948 218.80731,273.03724 L 218.80731,275.91673 L 235.05731,275.35027 C 243.99481,275.03871 251.66153,274.46364 252.09447,274.07234 z M 314.80731,275.09096 C 314.80731,274.57163 313.79268,272.96715 312.55258,271.52545 C 310.48481,269.12152 309.47778,268.85525 300.40763,268.31412 L 290.5174,267.72406 L 292.91235,270.9926 C 294.22958,272.7903 296.20731,274.63179 297.30731,275.08479 C 300.10271,276.23599 314.80731,276.24118 314.80731,275.09096 z M 187.40232,271.88969 C 189.2971,269.75568 189.29525,269.75051 187.05731,270.92487 C 185.81981,271.57426 184.80731,272.53974 184.80731,273.07038 C 184.80731,274.49102 185.28599,274.27323 187.40232,271.88969 z M 220.80731,264.5352 L 220.80731,261.0352 L 215.30731,261.0352 L 209.80731,261.0352 L 209.80731,264.5352 L 209.80731,268.0352 L 215.30731,268.0352 L 220.80731,268.0352 L 220.80731,264.5352 z M 240.2532,267.0352 L 245.40571,267.0352 L 244.9971,263.5352 L 244.5885,260.0352 L 237.4479,260.04621 C 233.52058,260.05226 228.61981,260.33614 226.55731,260.67705 C 223.05357,261.25618 222.80731,261.52749 222.80731,264.8085 L 222.80731,268.32011 L 228.954,267.67766 C 232.33468,267.3243 237.41932,267.0352 240.2532,267.0352 z M 249.19078,261.2852 C 242.35285,251.50138 241.80731,250.99373 241.80731,254.41453 C 241.80731,256.33219 242.40972,257.37997 243.70734,257.71931 C 245.06044,258.07315 245.79513,259.46833 246.25969,262.56623 C 246.85548,266.53922 247.18921,266.95092 250.10967,267.31571 C 251.86837,267.53539 253.44255,267.78714 253.60784,267.87516 C 253.77313,267.96318 251.78545,264.9977 249.19078,261.2852 z M 196.80731,262.36089 C 196.80731,262.18176 196.20454,262.0352 195.46783,262.0352 C 194.73111,262.0352 193.56643,263.2727 192.87966,264.7852 L 191.63098,267.5352 L 194.21915,265.11089 C 195.64264,263.77751 196.80731,262.54001 196.80731,262.36089 z M 302.57129,264.7852 C 301.75732,263.5477 300.01493,261.97933 298.69932,261.29994 C 296.37169,260.09793 284.80731,259.49503 284.80731,260.57569 C 284.80731,260.87296 285.79194,262.44796 286.99537,264.07569 C 289.07859,266.89341 289.53959,267.0352 296.61734,267.0352 L 304.05125,267.0352 L 302.57129,264.7852 z M 223.80731,255.17387 C 223.80731,251.50805 223.66807,251.33763 221.05731,251.80807 C 217.28555,252.4877 215.80731,253.85319 215.80731,256.65765 C 215.80731,258.76479 216.26224,259.0352 219.80731,259.0352 C 223.78337,259.0352 223.80731,259.01209 223.80731,255.17387 z M 240.44461,257.73123 C 240.61019,257.56565 240.46613,255.70762 240.12448,253.60228 L 239.5033,249.77438 L 233.01297,250.38046 C 229.44329,250.7138 226.40183,251.10998 226.25416,251.26087 C 226.1065,251.41175 225.65707,253.2941 225.25544,255.44386 L 224.5252,259.35252 L 232.33438,258.6924 C 236.62943,258.32934 240.27903,257.89681 240.44461,257.73123 z M 290.80731,258.58225 C 290.80731,258.33313 290.30779,257.03297 289.69726,255.693 C 288.85912,253.8535 287.38936,253.01986 283.69726,252.28984 C 281.00779,251.75806 278.80731,251.52629 278.80731,251.7748 C 278.80731,253.48471 282.55581,258.01907 284.24648,258.35426 C 287.36245,258.97203 290.80731,259.09174 290.80731,258.58225 z M 203.80731,254.38021 C 203.80731,253.11964 201.67176,254.42761 200.69698,256.2852 C 199.52262,258.52314 199.52779,258.52499 201.6618,256.63021 C 202.84183,255.58247 203.80731,254.56997 203.80731,254.38021 z M 242.38163,247.5606 C 238.84851,243.24889 236.85714,241.60408 238.4161,244.2852 C 240.23822,247.4189 245.10045,253.07539 245.56913,252.60671 C 245.85553,252.32031 244.42115,250.04956 242.38163,247.5606 z M 209.30731,249.83533 C 210.00541,249.0965 209.4016,248.98828 207.30731,249.47685 C 205.65731,249.86178 203.85731,250.65298 203.30731,251.23507 C 202.60921,251.9739 203.21302,252.08212 205.30731,251.59355 C 206.95731,251.20862 208.75731,250.41742 209.30731,249.83533 z M 227.20006,249.20874 C 228.17854,247.62553 226.64434,244.16051 225.20877,244.71139 C 223.33936,245.42875 223.37355,250.0352 225.24829,250.0352 C 226.04083,250.0352 226.91913,249.66329 227.20006,249.20874 z M 277.95516,246.7852 C 276.12833,243.88697 271.80731,241.69108 271.80731,243.66093 C 271.80731,245.02535 277.1402,250.0352 278.5926,250.0352 C 279.67666,250.0352 279.52892,249.28194 277.95516,246.7852 z M 235.80731,246.0352 C 235.80731,243.36163 235.47746,243.0352 232.77593,243.0352 C 229.61832,243.0352 228.14666,244.8712 229.16894,247.5352 C 229.50542,248.41206 231.00385,249.0352 232.77593,249.0352 C 235.47746,249.0352 235.80731,248.70877 235.80731,246.0352 z M 247.80731,238.0352 L 247.80731,235.0352 L 240.80731,235.0352 C 234.14064,235.0352 233.80731,235.14631 233.80731,237.36853 C 233.80731,240.73139 234.44256,241.0352 241.47398,241.0352 L 247.80731,241.0352 L 247.80731,238.0352 z M 250.49664,236.2852 C 250.24511,235.3227 250.03931,236.1102 250.03931,238.0352 C 250.03931,239.9602 250.24511,240.7477 250.49664,239.7852 C 250.74816,238.8227 250.74816,237.2477 250.49664,236.2852 z M 266.30731,238.0352 C 266.30731,235.64465 266.01179,235.52226 259.55731,235.23951 L 252.80731,234.94382 L 252.80731,238.0352 L 252.80731,241.12658 L 259.55731,240.83089 C 266.01179,240.54815 266.30731,240.42575 266.30731,238.0352 z M 265.59792,232.49248 C 264.66709,231.56165 236.08758,231.24278 234.66016,232.1473 C 233.87614,232.64412 240.21,233.01101 249.72398,233.01989 C 258.75314,233.02831 265.89642,232.79098 265.59792,232.49248 z M 265.62414,228.3226 C 265.33405,226.81628 263.56739,226.57717 250.95726,226.33748 C 237.17411,226.0755 231.97888,226.88576 233.33832,229.08537 C 233.66946,229.62116 240.90609,230.0352 249.93965,230.0352 C 264.51987,230.0352 265.92442,229.88184 265.62414,228.3226 z M 257.60479,224.29275 C 253.36841,224.10576 246.16841,224.10473 241.60479,224.29045 C 237.04118,224.47616 240.50731,224.62914 249.30731,224.63041 C 258.10731,224.63168 261.84118,224.47973 257.60479,224.29275 z "
         style="fill:#656054" />
      <path
         id="path1310"
         d="M 192.80731,325.00059 L 186.30731,324.31915 L 193.80731,324.31121 C 197.93231,324.30684 201.86981,324.24295 202.55731,324.16923 C 204.17789,323.99547 204.2179,316.84579 202.60731,315.2352 C 201.67398,314.30187 201.77727,314.0352 203.07213,314.0352 C 205.09297,314.0352 206.80731,311.08206 206.80731,307.60094 C 206.80731,305.13952 206.5532,305.02787 200.55731,304.85504 L 194.30731,304.67488 L 201.80731,304.10504 L 209.30731,303.5352 L 209.30731,299.28391 C 209.30731,295.81314 209.64709,295.03285 211.158,295.03391 C 212.73364,295.03501 212.95632,294.37667 212.6563,290.60431 C 212.35152,286.77226 212.58371,286.11994 214.37432,285.77764 C 215.51306,285.55996 217.31383,285.72223 218.37603,286.13824 C 219.88621,286.72971 219.59868,286.90995 217.05731,286.96492 C 213.95293,287.03205 213.80731,287.21159 213.80731,290.97184 C 213.80731,294.66378 214.00933,294.93355 217.05731,295.3118 C 219.55534,295.62181 219.20828,295.75215 215.55731,295.87516 L 210.80731,296.0352 L 210.80731,299.99899 L 210.80731,303.96278 L 220.55731,304.2897 L 230.30731,304.61662 L 219.05731,304.82591 L 207.80731,305.0352 L 207.80731,309.46565 C 207.80731,313.26512 208.12775,313.95782 210.05731,314.32947 C 211.45014,314.59774 210.87869,314.81472 208.55731,314.89902 L 204.80731,315.0352 L 204.80731,320.0352 L 204.80731,325.0352 L 211.05731,325.01937 C 214.49481,325.01067 222.70731,324.55168 229.30731,323.9994 C 235.90731,323.44713 250.48231,322.59219 261.69619,322.09954 C 276.82169,321.43504 282.30342,320.85936 282.93088,319.8695 C 283.56395,318.87079 283.78054,318.84959 283.792,319.7852 C 283.8008,320.50402 285.08214,321.0352 286.80731,321.0352 C 290.28338,321.0352 290.34362,320.8717 288.20182,317.25002 C 286.70239,314.71454 286.70527,314.66732 288.24537,316.5352 C 289.15234,317.6352 290.44721,319.36744 291.12286,320.38463 C 291.88305,321.5291 293.23167,322.10086 294.66091,321.88463 L 296.97051,321.5352 L 293.82949,317.0352 C 291.52343,313.73141 291.35476,313.26469 293.19499,315.27946 C 294.57357,316.78881 296.09893,318.73388 296.58467,319.60185 C 297.79941,321.77247 303.92321,322.41429 315.28869,321.56219 C 323.90538,320.91617 324.75925,320.67837 323.59967,319.24755 C 322.88887,318.3705 323.7729,318.72583 325.56418,320.03719 C 327.9936,321.81572 329.10939,322.13312 329.956,321.28651 C 330.80261,320.4399 330.07207,318.92999 327.08051,315.34337 C 321.39689,308.52921 307.31054,290.28607 308.89018,291.7852 C 310.35415,293.17456 339.80731,293.64115 339.80731,292.27498 C 339.80731,291.85686 338.70135,290.32204 337.34963,288.86427 C 334.82276,286.13916 332.90092,285.77618 315.30731,284.7012 C 312.55731,284.53317 314.25828,284.31459 319.08725,284.21545 L 327.86718,284.0352 L 325.6578,281.04685 C 322.95579,277.39218 320.31034,276.84101 307.35566,277.23361 L 297.40401,277.5352 L 301.35566,281.71669 C 303.52907,284.01651 305.89026,286.94151 306.60275,288.21669 C 307.75261,290.27464 307.64022,290.24151 305.60275,287.9219 C 301.06681,282.75786 295.80727,276.32157 295.80513,275.93221 C 295.80393,275.71385 300.34758,275.67852 305.90213,275.8537 L 316.00131,276.1722 L 314.20723,273.13506 C 313.22048,271.46463 311.71433,269.80866 310.86023,269.45512 C 308.40065,268.43703 290.80731,267.67318 290.80731,268.58449 C 290.80731,269.03649 291.78575,270.4478 292.98162,271.72075 C 294.1775,272.9937 294.8944,274.0352 294.57474,274.0352 C 294.25508,274.0352 292.05408,271.6727 289.68363,268.7852 C 287.31318,265.8977 286.29421,264.3227 287.41925,265.2852 C 288.95495,266.59902 291.2522,267.0352 296.63605,267.0352 C 300.58024,267.0352 303.80731,266.63505 303.80731,266.14598 C 303.80731,265.65692 302.95139,264.19975 301.90527,262.90785 C 300.24158,260.85327 298.96107,260.5116 291.68671,260.18125 C 283.76772,259.82163 283.44039,259.88999 284.83875,261.61135 C 285.72819,262.70623 285.81247,263.12179 285.05246,262.66514 C 284.36229,262.25045 282.01531,259.35157 279.83694,256.22318 C 277.65858,253.09479 274.13908,248.5591 272.01583,246.14386 C 267.15186,240.61099 264.53383,240.94185 268.88139,246.53998 L 271.98412,250.5352 L 268.00984,246.2852 L 264.03557,242.0352 L 252.67144,241.90356 C 246.2349,241.829 242.82494,241.50379 244.80731,241.15356 C 247.71261,240.64027 248.30578,240.11041 248.2983,238.0352 C 248.2896,235.62215 248.03266,235.52489 240.91038,235.23861 L 233.53147,234.94201 L 234.07423,238.98861 C 234.60064,242.91326 234.52946,243.0352 231.71215,243.0352 C 229.15122,243.0352 228.80731,243.39037 228.80731,246.0352 C 228.80731,248.7971 229.08509,249.0352 232.30731,249.0352 C 235.64064,249.0352 235.80731,248.86853 235.80731,245.5352 C 235.80731,243.6102 236.25731,242.0352 236.80731,242.0352 C 237.35731,242.0352 237.80731,242.6292 237.80731,243.3552 C 237.80731,244.0812 239.28812,246.4437 241.09799,248.6052 C 246.19333,254.69046 253.35513,265.0352 252.4727,265.0352 C 252.22375,265.0352 249.86776,261.8852 247.23717,258.0352 C 244.60659,254.1852 242.30872,251.0352 242.1308,251.0352 C 241.95288,251.0352 241.80731,252.55772 241.80731,254.41857 C 241.80731,256.96093 242.30445,257.93194 243.80731,258.32495 C 245.13768,258.67285 245.80731,259.68897 245.80731,261.35979 C 245.80731,265.37562 246.85176,267.0352 249.37912,267.0352 C 251.90094,267.0352 253.80731,269.58995 253.80731,272.96946 C 253.80731,274.36853 254.45276,275.0352 255.80731,275.0352 C 257.50611,275.0352 257.80731,275.70187 257.80731,279.46188 C 257.80731,282.87251 258.20898,283.97204 259.55731,284.25232 C 263.68438,285.11019 256.9003,285.51256 247.30731,284.97887 L 237.30731,284.42253 L 247.11768,284.22887 L 256.92804,284.0352 L 256.61768,280.2852 L 256.30731,276.5352 L 244.30731,275.98634 L 232.30731,275.43747 L 242.55731,275.23634 C 251.92506,275.05251 252.80731,274.87009 252.80731,273.11699 C 252.80731,268.74826 251.81461,268.04097 245.45032,267.87516 C 241.8046,267.78019 240.66119,267.54873 242.63769,267.30581 C 245.11167,267.00175 245.81882,266.50758 245.38769,265.38406 C 245.06848,264.55222 244.80731,262.78343 244.80731,261.45341 C 244.80731,259.40803 244.30623,259.02303 241.55731,258.95625 C 239.76981,258.91283 238.86981,258.65033 239.55731,258.37292 C 240.25869,258.08991 240.80731,256.14953 240.80731,253.95187 L 240.80731,250.0352 L 235.37241,250.0352 C 227.14326,250.0352 224.80731,251.24578 224.80731,255.51045 L 224.80731,259.0352 L 230.55731,259.20991 C 235.75243,259.36775 235.87305,259.41733 231.80731,259.72363 C 224.57112,260.26877 222.9765,260.8801 222.51283,263.28685 L 222.07967,265.5352 L 221.94349,263.2852 C 221.86859,262.0477 221.35731,261.0352 220.80731,261.0352 C 220.25731,261.0352 219.80731,260.5852 219.80731,260.0352 C 219.80731,259.4852 220.70731,259.0352 221.80731,259.0352 C 223.47556,259.0352 223.80731,258.36853 223.80731,255.01615 C 223.80731,251.15232 223.7011,251.02037 221.05731,251.59967 C 216.0752,252.69134 215.80731,252.94012 215.80731,256.47522 C 215.80731,259.58673 215.44426,260.07261 212.55731,260.82479 C 209.60075,261.59511 209.30196,262.02656 209.24801,265.60338 C 209.19075,269.39971 209.06163,269.54589 205.50098,269.84539 C 201.55584,270.17723 199.33895,272.6511 200.43265,275.50123 C 200.94423,276.83439 202.45234,277.06241 209.17906,276.82367 L 217.30731,276.5352 L 217.62067,273.2852 C 217.86825,270.71741 217.55338,270.02045 216.12067,269.96492 C 211.47187,269.78473 218.68168,268.18119 223.80731,268.25532 C 226.83231,268.29907 227.95731,268.50333 226.30731,268.70924 C 219.4789,269.56137 218.80731,269.94553 218.80731,272.99946 C 218.80731,275.77108 219.05817,275.9454 223.55731,276.30016 L 228.30731,276.6747 L 223.02509,276.85495 C 218.57077,277.00695 217.60111,277.38785 216.83847,279.2852 C 216.12564,281.05863 215.92066,281.1576 215.8707,279.75245 C 215.81315,278.13408 214.76997,277.99577 204.55731,278.25245 L 193.30731,278.5352 L 192.99694,282.2852 L 192.68658,286.0352 L 196.99694,286.21536 C 199.77073,286.33129 198.63367,286.59866 193.80731,286.96536 L 186.30731,287.5352 L 185.99652,290.75075 L 185.68573,293.9663 L 196.49652,294.28837 L 207.30731,294.61044 L 194.12874,294.82282 C 179.85035,295.05292 177.80731,295.77692 177.80731,300.60663 C 177.80731,302.92412 178.11604,303.04172 184.55731,303.1777 C 191.16684,303.31724 191.1143,303.33602 182.0325,304.08024 C 170.15424,305.05361 169.80731,305.20752 169.80731,309.50382 L 169.80731,313.0352 L 179.47398,313.0352 C 193.10809,313.0352 190.70737,313.84279 176.12248,314.16263 C 163.98174,314.42887 163.96448,314.4327 163.47914,316.97157 C 163.21184,318.36986 163.41716,320.3062 163.93541,321.27456 C 165.00247,323.26838 166.22109,323.15053 140.80731,323.51122 C 130.81195,323.65309 127.85639,323.47103 131.29364,322.9252 C 140.17594,321.51471 140.53124,321.32032 141.25234,317.47653 C 141.7416,314.86854 142.81327,313.37422 145.2074,311.96165 C 147.01357,310.89598 149.00691,308.89254 149.63704,307.50956 C 150.26717,306.12657 151.85624,304.5869 153.16831,304.08805 C 154.5658,303.55672 155.84676,302.01414 156.26099,300.36372 C 157.18252,296.69208 158.6197,295.0352 160.88296,295.0352 C 162.08262,295.0352 163.3789,293.53146 164.64332,290.67302 C 166.00894,287.5858 167.34297,286.11757 169.20759,285.64958 C 171.06862,285.18249 172.30947,283.82066 173.43337,281.01176 C 174.46739,278.42747 175.65805,277.0352 176.8341,277.0352 C 180.16826,277.0352 181.87191,275.81635 183.29354,272.41391 C 184.06998,270.55562 185.39757,269.0352 186.24374,269.0352 C 187.0899,269.0352 188.89599,267.27088 190.25725,265.11449 C 191.61852,262.9581 193.65681,260.90035 194.78679,260.54171 C 195.91676,260.18307 197.5336,258.45989 198.37975,256.71242 C 201.94353,249.35254 202.32637,248.93861 206.55731,247.87059 L 210.80731,246.79777 L 210.80731,238.53893 C 210.80731,233.10333 211.23462,229.95653 212.05731,229.33358 C 212.74481,228.813 217.83975,226.9579 223.37941,225.21114 C 232.95692,222.19115 234.243,222.0352 249.57039,222.0352 C 260.5702,222.0352 265.91334,222.39774 266.3948,223.17676 C 266.78284,223.80462 267.3719,227.96712 267.70382,232.42676 L 268.30731,240.5352 L 271.8033,240.86691 C 276.07536,241.27225 277.39556,242.30777 279.90072,247.2183 C 281.57116,250.49264 282.32369,251.0352 285.19475,251.0352 C 287.99149,251.0352 288.97659,251.6926 291.18861,255.0352 C 293.43215,258.42541 294.36493,259.0352 297.30731,259.0352 C 300.25816,259.0352 301.18191,259.64415 303.46535,263.09465 C 305.19633,265.71034 307.135,267.35074 308.91636,267.70701 C 310.43689,268.01112 313.25147,270.00937 315.17097,272.14757 C 317.42962,274.66356 319.52826,276.0352 321.11913,276.0352 C 322.55412,276.0352 324.20599,276.97172 325.08775,278.2852 C 328.19438,282.91288 330.92257,285.0352 333.76471,285.0352 C 335.96085,285.0352 337.14297,285.84225 338.74599,288.43598 C 340.98917,292.06553 342.58288,293.0352 346.30507,293.0352 C 347.83361,293.0352 349.73271,294.4158 351.80731,297.0352 C 354.38877,300.29456 355.6041,301.0352 358.37102,301.0352 C 361.32583,301.0352 362.03159,301.55449 363.80731,305.0352 C 365.13952,307.64655 366.52817,309.0352 367.80731,309.0352 C 369.08645,309.0352 370.4751,310.42386 371.80731,313.0352 C 373.81313,316.96694 373.94573,317.03747 379.57763,317.16822 C 385.1591,317.29779 385.10037,317.32391 377.30731,318.17802 C 372.90731,318.66025 367.95731,318.89741 366.30731,318.70504 C 364.09699,318.44734 364.42603,318.31315 367.55731,318.19524 C 372.30731,318.01637 372.92789,316.67506 370.1923,312.50002 C 368.61928,310.09929 368.22276,310.02964 354.9423,309.82144 L 341.30731,309.60769 L 352.55731,309.28869 C 358.74481,309.11325 363.80731,308.78061 363.80731,308.5495 C 363.80731,306.67761 361.16097,303.09668 359.43541,302.63361 C 358.26496,302.3195 349.43231,301.95686 339.80731,301.82773 L 322.30731,301.59295 L 337.05731,301.28734 C 345.16981,301.11926 351.80731,300.56886 351.80731,300.06423 C 351.80731,299.5596 350.79481,297.98097 349.55731,296.55615 L 347.30731,293.96558 L 329.39214,294.25039 L 311.47698,294.5352 L 315.39214,299.21586 C 317.54548,301.79023 320.11582,305.05273 321.10399,306.46586 C 322.09217,307.879 323.58123,309.0352 324.41301,309.0352 C 325.24479,309.0352 325.6423,309.49318 325.29635,310.05294 C 324.9504,310.6127 326.08665,312.86269 327.82136,315.05294 L 330.97537,319.0352 L 347.14134,319.25714 L 363.30731,319.47908 L 348.01584,319.78341 C 336.11211,320.02032 332.60649,320.39496 332.19224,321.47448 C 331.78174,322.54422 328.87668,322.88288 319.4837,322.95597 C 312.78669,323.00809 303.82144,323.2319 299.56093,323.45334 C 295.26917,323.67639 291.55263,323.43214 291.22724,322.90565 C 290.89245,322.36394 287.34382,322.1772 282.97362,322.47133 C 278.75715,322.75511 268.33231,323.24287 259.80731,323.55524 C 251.28231,323.86761 239.35731,324.54954 233.30731,325.07064 C 221.29909,326.10493 203.04003,326.07335 192.80731,325.00059 z M 145.36897,321.93543 C 144.92617,322.6519 145.86205,323.0352 148.05417,323.0352 C 151.63409,323.0352 150.91045,323.79449 173.17264,296.67916 C 180.88878,287.28091 207.02347,259.08979 214.84759,251.72497 C 218.24252,248.52934 220.8369,245.73146 220.61289,245.50745 C 220.38888,245.28344 218.61199,245.58926 216.66423,246.18704 C 212.30669,247.52441 174.8631,285.64507 158.37016,305.5352 C 146.94039,319.31926 143.66303,322.93159 148.16337,316.7852 L 150.90909,313.0352 L 148.42963,313.0352 C 145.83084,313.0352 142.81695,315.34612 142.79366,317.35663 C 142.78615,318.00484 142.49531,319.59877 142.14735,320.89869 C 141.55965,323.0942 141.67581,323.17595 143.78168,322.04892 C 145.26378,321.25572 145.81334,321.21643 145.36897,321.93543 z M 161.99981,317.7852 C 162.27182,314.02569 162.61294,313.49982 164.95548,313.2286 C 167.65369,312.91621 168.76562,310.9047 168.79366,306.2852 C 168.80354,304.65718 169.42929,304.00331 171.05731,303.91985 C 172.29481,303.85641 173.98231,303.74391 174.80731,303.66985 C 175.75672,303.58463 176.42907,302.25197 176.63902,300.03922 C 177.04806,295.72812 178.36871,294.0352 181.32277,294.0352 C 183.75078,294.0352 184.80731,292.34277 184.80731,288.45341 C 184.80731,286.45305 185.3072,286.0352 187.70032,286.0352 C 190.731,286.0352 191.80731,284.60043 191.80731,280.5604 C 191.80731,278.2226 193.48078,277.0352 196.7756,277.0352 C 198.04349,277.0352 198.72755,276.06846 199.07529,273.7852 C 199.34752,271.9977 199.48711,270.43621 199.38548,270.31523 C 198.73107,269.53618 181.47897,288.40133 169.41549,303.08736 C 155.23931,320.3454 154.38105,321.98414 159.49981,322.01989 C 161.36726,322.03293 161.7379,321.40511 161.99981,317.7852 z M 155.25951,307.90963 C 156.70601,306.19057 157.68011,304.57467 157.42419,304.31875 C 156.32515,303.21971 151.28275,306.72614 150.98776,308.79457 C 150.54156,311.92324 152.16534,311.58686 155.25951,307.90963 z M 162.18862,299.60192 C 165.45297,295.32214 165.44661,295.03719 162.1066,295.93045 C 159.04611,296.74895 155.57697,303.0352 158.18575,303.0352 C 158.94705,303.0352 160.74834,301.49023 162.18862,299.60192 z M 170.68178,287.19023 C 168.14061,286.80276 165.80731,289.30732 165.80731,292.4225 C 165.80731,294.15998 166.28349,293.96767 169.37575,290.98137 C 172.79047,287.68365 172.84673,287.52034 170.68178,287.19023 z M 178.09994,281.53517 C 180.6699,278.31427 180.73422,278.0352 178.90665,278.0352 C 176.87095,278.0352 173.80731,281.47323 173.80731,283.75771 C 173.80731,285.90788 175.17665,285.1989 178.09994,281.53517 z M 188.79003,270.7852 C 188.79954,270.3727 188.12117,270.0352 187.28256,270.0352 C 186.0242,270.0352 183.80731,273.65218 183.80731,275.70526 C 183.80731,276.53742 188.77042,271.63673 188.79003,270.7852 z M 207.41327,267.61967 C 207.71202,266.84113 207.8104,265.01335 207.63188,263.55793 L 207.30731,260.91171 L 203.35436,264.97346 L 199.40141,269.0352 L 203.13575,269.0352 C 205.43362,269.0352 207.07902,268.4907 207.41327,267.61967 z M 195.70398,262.16742 C 195.03173,261.94334 193.87997,262.58293 193.14451,263.58873 C 190.89662,266.66291 191.65557,267.52639 194.36678,264.97934 C 196.00135,263.44374 196.48456,262.42762 195.70398,262.16742 z M 214.05731,259.04886 C 215.08726,259.0301 215.01193,255.0352 213.98162,255.0352 C 213.5275,255.0352 212.065,256.22687 210.73162,257.68335 L 208.30731,260.33151 L 210.80731,259.69701 C 212.18231,259.34803 213.64481,259.05637 214.05731,259.04886 z M 204.91146,253.23658 C 203.00639,252.60156 199.80731,255.1217 199.80731,257.25748 C 199.80731,259.29187 199.97379,259.24988 202.85602,256.48853 C 204.53282,254.88206 205.45776,253.41869 204.91146,253.23658 z M 290.80731,257.64598 C 290.80731,254.77289 287.31086,252.24921 282.50575,251.65405 C 277.34339,251.01464 277.35801,250.96847 281.03937,256.2852 C 282.57021,258.49608 283.71433,259.0352 286.8754,259.0352 C 289.56441,259.0352 290.80731,258.59606 290.80731,257.64598 z M 208.80731,250.5352 C 209.81112,249.32568 209.78642,249.03784 208.67976,249.04886 C 206.12733,249.07425 202.80731,250.26318 202.80731,251.15183 C 202.80731,252.62123 207.4741,252.14162 208.80731,250.5352 z M 221.2835,249.41615 C 222.17398,248.52568 222.64362,247.53818 222.32715,247.22171 C 222.01068,246.90524 220.76425,247.63381 219.55731,248.84076 C 218.35037,250.0477 217.88072,251.0352 218.51366,251.0352 C 219.1466,251.0352 220.39302,250.30663 221.2835,249.41615 z M 227.80731,246.84524 C 227.80731,242.58235 224.42362,243.35512 223.99981,247.71481 C 223.73122,250.47783 223.95263,250.80996 225.74981,250.33999 C 227.24124,249.94997 227.80731,248.98847 227.80731,246.84524 z M 278.71399,247.7852 C 276.81934,244.12185 274.61959,242.0352 272.65232,242.0352 C 270.23116,242.0352 270.31349,242.52122 273.426,246.60192 C 276.49469,250.62519 280.6655,251.55848 278.71399,247.7852 z M 239.16894,247.5352 C 238.56034,245.94922 236.80731,245.45436 236.80731,246.86853 C 236.80731,247.92605 237.9004,249.0352 238.94259,249.0352 C 239.38366,249.0352 239.48552,248.3602 239.16894,247.5352 z M 216.80731,242.41857 C 216.80731,240.70187 216.24788,240.0352 214.80731,240.0352 C 213.26607,240.0352 212.80731,240.70187 212.80731,242.94158 C 212.80731,245.35563 213.1461,245.75937 214.80731,245.32495 C 216.10158,244.98649 216.80731,243.96093 216.80731,242.41857 z M 219.80731,240.97618 C 219.80731,239.90864 219.35731,239.0352 218.80731,239.0352 C 218.25731,239.0352 217.80731,240.18676 217.80731,241.59422 C 217.80731,243.04558 218.24015,243.88572 218.80731,243.5352 C 219.35731,243.19528 219.80731,242.04372 219.80731,240.97618 z M 222.80731,239.91717 C 222.80731,238.17181 222.3891,237.17564 221.80731,237.5352 C 221.25731,237.87512 220.80731,239.50323 220.80731,241.15323 C 220.80731,242.89859 221.22553,243.89476 221.80731,243.5352 C 222.35731,243.19528 222.80731,241.56717 222.80731,239.91717 z M 226.80731,239.5352 C 226.80731,237.6102 226.35731,236.0352 225.80731,236.0352 C 225.25731,236.0352 224.80731,237.6102 224.80731,239.5352 C 224.80731,241.4602 225.25731,243.0352 225.80731,243.0352 C 226.35731,243.0352 226.80731,241.4602 226.80731,239.5352 z M 232.62067,238.2852 C 232.84872,235.91994 232.5245,235.0352 231.42969,235.0352 C 229.67723,235.0352 229.32073,235.54539 228.40782,239.3597 C 227.80332,241.8854 227.97383,242.14987 230.01956,241.8597 C 231.78554,241.60921 232.37878,240.79397 232.62067,238.2852 z M 250.80731,238.0352 C 250.80731,236.3852 250.63338,235.0352 250.42081,235.0352 C 250.20823,235.0352 249.83617,236.3852 249.594,238.0352 C 249.35183,239.6852 249.52576,241.0352 249.9805,241.0352 C 250.43525,241.0352 250.80731,239.6852 250.80731,238.0352 z M 266.80731,238.0352 C 266.80731,235.34799 266.46846,235.01958 263.55731,234.88537 C 260.53238,234.74591 260.49775,234.70669 263.05731,234.31895 C 267.49938,233.64603 266.22125,232.22894 260.55731,231.54716 C 252.93126,230.6292 233.30731,231.34073 233.30731,232.5352 C 233.30731,233.10663 237.80731,233.74949 243.80731,234.0352 C 249.70252,234.31592 253.75912,234.89 253.05731,235.34422 C 252.36981,235.78918 251.80731,237.25168 251.80731,238.59422 C 251.80731,240.96522 252.02233,241.0352 259.30731,241.0352 L 266.80731,241.0352 L 266.80731,238.0352 z M 224.55731,235.44707 C 228.54481,234.46941 231.80731,233.30179 231.80731,232.85236 C 231.80731,232.40292 231.43613,232.0352 230.98246,232.0352 C 229.63267,232.0352 215.53276,236.97186 214.89502,237.66773 C 214.57178,238.02043 214.98231,238.06502 215.80731,237.76681 C 216.63231,237.46861 220.56981,236.42472 224.55731,235.44707 z M 231.60045,229.15577 C 232.14462,227.52326 230.55182,227.74382 221.20192,230.59572 C 214.627,232.60119 212.80731,233.5569 212.80731,235.00462 C 212.80731,236.69825 213.57846,236.57768 222.01712,233.56468 C 227.08252,231.75609 231.39502,229.77208 231.60045,229.15577 z M 231.43729,225.73856 C 232.71921,224.45664 229.69341,225.00565 221.20192,227.59572 C 216.58489,229.004 212.80731,230.51571 212.80731,230.95508 C 212.80731,231.80778 230.25297,226.92287 231.43729,225.73856 z M 265.80731,228.51043 L 265.80731,225.98566 L 249.57003,226.26043 C 235.13053,226.50478 233.29613,226.72587 233.00207,228.25733 C 232.70378,229.81079 234.07374,230.00959 246.98935,230.28707 C 254.86423,230.45625 262.31981,230.69379 263.55731,230.81494 C 265.35469,230.99089 265.80731,230.52731 265.80731,228.51043 z M 263.80731,224.0352 C 262.43231,223.59485 255.90731,223.23456 249.30731,223.23456 C 242.70731,223.23456 236.18231,223.59485 234.80731,224.0352 C 233.34756,224.5027 239.38099,224.83584 249.30731,224.83584 C 259.23363,224.83584 265.26706,224.5027 263.80731,224.0352 z M 170.02379,323.30153 C 172.61785,323.09628 177.11785,323.09415 180.02379,323.2968 C 182.92972,323.49944 180.80731,323.66737 175.30731,323.66997 C 169.80731,323.67257 167.42972,323.50678 170.02379,323.30153 z M 319.18417,313.7852 C 316.23146,310.41584 314.50636,308.0352 315.0175,308.0352 C 315.26779,308.0352 316.9191,309.8352 318.68707,312.0352 C 322.11933,316.30619 322.46747,317.5318 319.18417,313.7852 z M 282.58394,313.84981 C 282.21859,312.92284 282.4134,311.99984 283.01685,311.79869 C 283.72238,311.56351 283.48279,310.46956 282.34566,308.73408 C 281.37306,307.24969 280.79425,306.0352 281.05941,306.0352 C 281.32458,306.0352 282.80286,307.9477 284.34447,310.2852 C 285.88608,312.6227 286.43347,313.9488 285.5609,313.2321 C 284.22273,312.13296 283.91758,312.21122 283.61132,313.7321 C 283.28035,315.37564 283.18944,315.38605 282.58394,313.84981 z M 222.05731,313.30673 C 224.11981,313.09099 227.49481,313.09099 229.55731,313.30673 C 231.61981,313.52248 229.93231,313.69899 225.80731,313.69899 C 221.68231,313.69899 219.99481,313.52248 222.05731,313.30673 z M 255.01812,312.29738 C 258.15907,312.09957 263.55907,312.09796 267.01812,312.29379 C 270.47718,312.48962 267.90731,312.65146 261.30731,312.65344 C 254.70731,312.65541 251.87718,312.49519 255.01812,312.29738 z M 275.30731,308.78649 L 275.30731,304.5352 L 269.80731,303.9482 C 266.3966,303.58418 265.54189,303.29928 267.55731,303.1982 C 270.65514,303.04283 270.80731,302.84792 270.80731,299.0352 L 270.80731,295.0352 L 260.55731,294.84252 C 253.30683,294.70623 252.13629,294.54594 256.55731,294.2948 L 262.80731,293.93977 L 262.98756,289.23748 L 263.16781,284.5352 L 263.54001,289.22796 C 263.90572,293.83886 263.97672,293.92608 267.60976,294.22796 C 271.1789,294.52453 271.31788,294.68062 271.61176,298.72278 C 271.86154,302.1585 272.31041,302.96646 274.11176,303.22278 C 275.92566,303.48089 276.40221,304.36089 276.85328,308.2852 C 277.19658,311.272 277.01098,313.03568 276.35328,313.03649 C 275.778,313.0372 275.30731,311.1247 275.30731,308.78649 z M 286.80731,307.5352 C 285.10447,305.0602 283.93623,303.0352 284.21123,303.0352 C 284.48623,303.0352 286.10447,305.0602 287.80731,307.5352 C 289.51015,310.0102 290.67839,312.0352 290.40339,312.0352 C 290.12839,312.0352 288.51015,310.0102 286.80731,307.5352 z M 311.24457,303.36405 C 309.7045,301.34492 308.95514,300.00853 309.57932,300.39429 C 310.85954,301.18551 315.18875,307.0352 314.49409,307.0352 C 314.24692,307.0352 312.78463,305.38318 311.24457,303.36405 z M 278.67975,303.2852 C 277.43588,301.69914 277.47125,301.66377 279.05731,302.90765 C 280.72306,304.21401 281.25279,305.0352 280.42975,305.0352 C 280.2221,305.0352 279.4346,304.2477 278.67975,303.2852 z M 272.21386,293.7852 C 269.60299,289.7977 267.03833,285.9727 266.51462,285.2852 C 265.99091,284.5977 265.84547,284.0352 266.19142,284.0352 C 266.53737,284.0352 268.95497,287.2977 271.56387,291.2852 C 278.14854,301.34938 277.95939,301.0352 277.4338,301.0352 C 277.1737,301.0352 274.82473,297.7727 272.21386,293.7852 z M 306.20527,296.7852 C 301.82508,291.73287 300.52393,290.0352 301.03186,290.0352 C 301.32585,290.0352 303.22572,292.0602 305.2538,294.5352 C 309.00996,299.1191 309.75392,300.8784 306.20527,296.7852 z M 277.03937,293.2852 C 274.45045,289.54621 273.6089,288.0352 274.11541,288.0352 C 274.34978,288.0352 275.73272,289.8352 277.18861,292.0352 C 280.14752,296.50642 280.01843,297.58765 277.03937,293.2852 z M 231.55731,294.29796 C 234.44481,294.09596 239.16981,294.09596 242.05731,294.29796 C 244.94481,294.49996 242.58231,294.66524 236.80731,294.66524 C 231.03231,294.66524 228.66981,294.49996 231.55731,294.29796 z M 298.66769,287.2852 C 295.79075,283.81205 294.57182,282.0352 295.06618,282.0352 C 295.34324,282.0352 296.77124,283.6102 298.23951,285.5352 C 300.96423,289.10749 301.29417,290.45598 298.66769,287.2852 z M 270.80731,284.0352 C 269.63241,282.3852 268.89612,281.0352 269.17112,281.0352 C 269.44612,281.0352 270.63241,282.3852 271.80731,284.0352 C 272.98221,285.6852 273.7185,287.0352 273.4435,287.0352 C 273.1685,287.0352 271.98221,285.6852 270.80731,284.0352 z M 223.56897,285.32794 C 224.81288,285.08875 226.61288,285.09783 227.56897,285.34812 C 228.52506,285.59841 227.50731,285.79412 225.30731,285.78302 C 223.10731,285.77192 222.32506,285.56713 223.56897,285.32794 z M 259.80709,275.7852 C 255.64657,270.48311 254.57092,268.62554 257.60824,271.98798 C 260.49962,275.18883 264.07363,280.0352 263.54277,280.0352 C 263.32237,280.0352 261.64131,278.1227 259.80709,275.7852 z M 266.67975,278.2852 C 265.43588,276.69914 265.47125,276.66377 267.05731,277.90765 C 268.72306,279.21401 269.25279,280.0352 268.42975,280.0352 C 268.2221,280.0352 267.4346,279.2477 266.67975,278.2852 z M 288.80731,274.0352 C 287.06488,271.8352 285.86425,270.0352 286.13925,270.0352 C 286.41425,270.0352 288.06488,271.8352 289.80731,274.0352 C 291.54974,276.2352 292.75037,278.0352 292.47537,278.0352 C 292.20037,278.0352 290.54974,276.2352 288.80731,274.0352 z M 263.2123,273.7852 L 261.30731,271.5352 L 263.55731,273.44019 C 265.67175,275.23041 266.26255,276.0352 265.4623,276.0352 C 265.27254,276.0352 264.26004,275.0227 263.2123,273.7852 z M 259.67975,269.2852 C 258.43588,267.69914 258.47125,267.66377 260.05731,268.90765 C 261.72306,270.21401 262.25279,271.0352 261.42975,271.0352 C 261.2221,271.0352 260.4346,270.2477 259.67975,269.2852 z M 283.67975,267.2852 C 282.43588,265.69914 282.47125,265.66377 284.05731,266.90765 C 285.72306,268.21401 286.25279,269.0352 285.42975,269.0352 C 285.2221,269.0352 284.4346,268.2477 283.67975,267.2852 z M 256.67975,265.2852 C 255.43588,263.69914 255.47125,263.66377 257.05731,264.90765 C 258.72306,266.21401 259.25279,267.0352 258.42975,267.0352 C 258.2221,267.0352 257.4346,266.2477 256.67975,265.2852 z M 280.62918,263.2852 C 278.25311,260.49095 274.62667,255.0352 275.14541,255.0352 C 275.40627,255.0352 277.23616,257.2852 279.21184,260.0352 C 282.76961,264.98735 283.4992,266.66033 280.62918,263.2852 z M 253.2123,260.7852 L 251.30731,258.5352 L 253.55731,260.44019 C 254.79481,261.48793 255.80731,262.50043 255.80731,262.69019 C 255.80731,263.49044 255.00252,262.89965 253.2123,260.7852 z M 249.18417,255.7852 C 246.23146,252.41584 244.50636,250.0352 245.0175,250.0352 C 245.26779,250.0352 246.9191,251.8352 248.68707,254.0352 C 252.11933,258.30619 252.46747,259.5318 249.18417,255.7852 z M 272.67975,252.2852 C 271.43588,250.69914 271.47125,250.66377 273.05731,251.90765 C 274.72306,253.21401 275.25279,254.0352 274.42975,254.0352 C 274.2221,254.0352 273.4346,253.2477 272.67975,252.2852 z M 241.3173,246.04563 C 239.742,244.40137 238.66193,242.84725 238.91715,242.59203 C 239.17237,242.33681 240.62125,243.68212 242.13688,245.5816 C 245.52564,249.8286 245.14701,250.04298 241.3173,246.04563 z "
         style="fill:#0b0a05" />
    </g>
  </g>
</svg>
