<svg xmlns="http://www.w3.org/2000/svg" width="1280" height="640" viewBox="0 0 1280 640"><rect fill="#f6f0bb" stroke="#4CAF50" stroke-width="80" width="1200" height="560" x="40" y="40"/><g font-family="Verdana,Geneva,DejaVu Sans,sans-serif"><text x="50%" y="480" text-anchor="middle" font-size="48px" fill="#305030">A Docker container with</text><text x="50%" y="528" text-anchor="middle" font-size="48px" fill="#305030">Python, git, and the GitHub CLI</text><text x="50%" y="180" text-anchor="middle" font-size="96px" font-weight="600" fill="#862d2d">pyaction</text></g><g transform="translate(84,476)"><svg width="80" height="80" viewBox="0 0 32 32"><rect style="fill:#bfd9bf;stroke:#862d2d;stroke-width:1.5;" width="30.5" height="30.5" x="0.75" y="0.75" rx="4"/><text x="50%" y="35%" dominant-baseline="central" text-anchor="middle" font-size="20px" fill="#862d2d" font-family="Times New Roman,Georgia,serif">VC</text><text x="50%" y="65%" dominant-baseline="central" text-anchor="middle" font-size="20px" fill="#862d2d" font-family="Times New Roman,Georgia,serif">A</text></svg></g><g transform="translate(232, 256)"><svg width="128" height="128" viewBox="10 10 108 108"><linearGradient id="python-original-a" gradientUnits="userSpaceOnUse" x1="70.252" y1="1237.476" x2="170.659" y2="1151.089" gradientTransform="matrix(.563 0 0 -.568 -29.215 707.817)"><stop offset="0" stop-color="#5A9FD4"/><stop offset="1" stop-color="#306998"/></linearGradient><linearGradient id="python-original-b" gradientUnits="userSpaceOnUse" x1="209.474" y1="1098.811" x2="173.62" y2="1149.537" gradientTransform="matrix(.563 0 0 -.568 -29.215 707.817)"><stop offset="0" stop-color="#FFD43B"/><stop offset="1" stop-color="#FFE873"/></linearGradient><path fill="url(#python-original-a)" d="M63.391 1.988c-4.222.02-8.252.379-11.8 1.007-10.45 1.846-12.346 5.71-12.346 12.837v9.411h24.693v3.137H29.977c-7.176 0-13.46 4.313-15.426 12.521-2.268 9.405-2.368 15.275 0 25.096 1.755 7.311 5.947 12.519 13.124 12.519h8.491V67.234c0-8.151 7.051-15.34 15.426-15.34h24.665c6.866 0 12.346-5.654 12.346-12.548V15.833c0-6.693-5.646-11.72-12.346-12.837-4.244-.706-8.645-1.027-12.866-1.008zM50.037 9.557c2.55 0 4.634 2.117 4.634 4.721 0 2.593-2.083 4.69-4.634 4.69-2.56 0-4.633-2.097-4.633-4.69-.001-2.604 2.073-4.721 4.633-4.721z" transform="translate(0 10.26)"/><path fill="url(#python-original-b)" d="M91.682 28.38v10.966c0 8.5-7.208 15.655-15.426 15.655H51.591c-6.756 0-12.346 5.783-12.346 12.549v23.515c0 6.691 5.818 10.628 12.346 12.547 7.816 2.297 15.312 2.713 24.665 0 6.216-1.801 12.346-5.423 12.346-12.547v-9.412H63.938v-3.138h37.012c7.176 0 9.852-5.005 12.348-12.519 2.578-7.735 2.467-15.174 0-25.096-1.774-7.145-5.161-12.521-12.348-12.521h-9.268zM77.809 87.927c2.561 0 4.634 2.097 4.634 4.692 0 2.602-2.074 4.719-4.634 4.719-2.55 0-4.633-2.117-4.633-4.719 0-2.595 2.083-4.692 4.633-4.692z" transform="translate(0 10.26)"/><radialGradient id="python-original-c" cx="1825.678" cy="444.45" r="26.743" gradientTransform="matrix(0 -.24 -1.055 0 532.979 557.576)" gradientUnits="userSpaceOnUse"><stop offset="0" stop-color="#B8B8B8" stop-opacity=".498"/><stop offset="1" stop-color="#7F7F7F" stop-opacity="0"/></radialGradient><path opacity=".444" fill="url(#python-original-c)" d="M97.309 119.597c0 3.543-14.816 6.416-33.091 6.416-18.276 0-33.092-2.873-33.092-6.416 0-3.544 14.815-6.417 33.092-6.417 18.275 0 33.091 2.872 33.091 6.417z"/></svg></g><g transform="translate(392, 256)"><svg width="128" height="128" viewBox="0 0 128 128"><path fill="#F34F29" d="M124.742 58.378L69.625 3.264c-3.172-3.174-8.32-3.174-11.497 0L46.685 14.71l14.518 14.518c3.375-1.139 7.243-.375 9.932 2.314a9.66 9.66 0 012.293 9.993L87.42 55.529c3.385-1.167 7.292-.413 9.994 2.295 3.78 3.777 3.78 9.9 0 13.679a9.673 9.673 0 01-13.683 0 9.677 9.677 0 01-2.105-10.521L68.578 47.933l-.002 34.341a9.708 9.708 0 012.559 1.828c3.779 3.777 3.779 9.898 0 13.683-3.779 3.777-9.904 3.777-13.679 0-3.778-3.784-4.088-9.905-.311-13.683.934-.933 1.855-1.638 2.855-2.11V47.333c-1-.472-1.92-1.172-2.856-2.111-2.861-2.86-3.396-7.06-1.928-10.576L40.983 20.333 3.229 58.123c-3.175 3.177-3.155 8.325.02 11.5l55.126 55.114c3.173 3.174 8.325 3.174 11.503 0l54.86-54.858c3.175-3.176 3.178-8.327.004-11.501z"/></svg></g><g transform="translate(552, 232)"><svg width="176" height="176" viewBox="0 0 128 128"><path d="M124.8 52.1c-4.3-2.5-10-2.8-14.8-1.4-.6-5.2-4-9.7-8-12.9l-1.6-1.3-1.4 1.6c-2.7 3.1-3.5 8.3-3.1 12.3.3 2.9 1.2 5.9 3 8.3-1.4.8-2.9 1.9-4.3 2.4-2.8 1-5.9 2-8.9 2H79V49H66V24H51v12H26v13H13v14H1.8l-.2 1.5c-.5 6.4.3 12.6 3 18.5l1.1 2.2.1.2c7.9 13.4 21.7 19 36.8 19 29.2 0 53.3-13.1 64.3-40.6 7.4.4 15-1.8 18.6-8.9l.9-1.8-1.6-1zM28 39h10v11H28V39zm13.1 44.2c0 1.7-1.4 3.1-3.1 3.1-1.7 0-3.1-1.4-3.1-3.1 0-1.7 1.4-3.1 3.1-3.1 1.7.1 3.1 1.4 3.1 3.1zM28 52h10v11H28V52zm-13 0h11v11H15V52zm27.7 50.2c-15.8-.1-24.3-5.4-31.3-12.4 2.1.1 4.1.2 5.9.2 1.6 0 3.2 0 4.7-.1 3.9-.2 7.3-.7 10.1-1.5 2.3 5.3 6.5 10.2 14 13.8h-3.4zM51 63H40V52h11v11zm0-13H40V39h11v11zm13 13H53V52h11v11zm0-13H53V39h11v11zm0-13H53V26h11v11zm13 26H66V52h11v11zM38.8 81.2c-.2-.1-.5-.2-.8-.2-1.2 0-2.2 1-2.2 2.2 0 1.2 1 2.2 2.2 2.2s2.2-1 2.2-2.2c0-.3-.1-.6-.2-.8-.2.3-.4.5-.8.5-.5 0-.9-.4-.9-.9.1-.4.3-.7.5-.8z" fill="#019BC6"/></svg></g><g transform="translate(760, 256)"><svg width="128" height="128" viewBox="0 0 128 128"><g fill="#6e5494"><path fill-rule="evenodd" clip-rule="evenodd" d="M64 5.103c-33.347 0-60.388 27.035-60.388 60.388 0 26.682 17.303 49.317 41.297 57.303 3.017.56 4.125-1.31 4.125-2.905 0-1.44-.056-6.197-.082-11.243-16.8 3.653-20.345-7.125-20.345-7.125-2.747-6.98-6.705-8.836-6.705-8.836-5.48-3.748.413-3.67.413-3.67 6.063.425 9.257 6.223 9.257 6.223 5.386 9.23 14.127 6.562 17.573 5.02.542-3.903 2.107-6.568 3.834-8.076-13.413-1.525-27.514-6.704-27.514-29.843 0-6.593 2.36-11.98 6.223-16.21-.628-1.52-2.695-7.662.584-15.98 0 0 5.07-1.623 16.61 6.19C53.7 35 58.867 34.327 64 34.304c5.13.023 10.3.694 15.127 2.033 11.526-7.813 16.59-6.19 16.59-6.19 3.287 8.317 1.22 14.46.593 15.98 3.872 4.23 6.215 9.617 6.215 16.21 0 23.194-14.127 28.3-27.574 29.796 2.167 1.874 4.097 5.55 4.097 11.183 0 8.08-.07 14.583-.07 16.572 0 1.607 1.088 3.49 4.148 2.897 23.98-7.994 41.263-30.622 41.263-57.294C124.388 32.14 97.35 5.104 64 5.104z"/><path d="M26.484 91.806c-.133.3-.605.39-1.035.185-.44-.196-.685-.605-.543-.906.13-.31.603-.395 1.04-.188.44.197.69.61.537.91zm2.446 2.729c-.287.267-.85.143-1.232-.28-.396-.42-.47-.983-.177-1.254.298-.266.844-.14 1.24.28.394.426.472.984.17 1.255zM31.312 98.012c-.37.258-.976.017-1.35-.52-.37-.538-.37-1.183.01-1.44.373-.258.97-.025 1.35.507.368.545.368 1.19-.01 1.452zm3.261 3.361c-.33.365-1.036.267-1.552-.23-.527-.487-.674-1.18-.343-1.544.336-.366 1.045-.264 1.564.23.527.486.686 1.18.333 1.543zm4.5 1.951c-.147.473-.825.688-1.51.486-.683-.207-1.13-.76-.99-1.238.14-.477.823-.7 1.512-.485.683.206 1.13.756.988 1.237zm4.943.361c.017.498-.563.91-1.28.92-.723.017-1.308-.387-1.315-.877 0-.503.568-.91 1.29-.924.717-.013 1.306.387 1.306.88zm4.598-.782c.086.485-.413.984-1.126 1.117-.7.13-1.35-.172-1.44-.653-.086-.498.422-.997 1.122-1.126.714-.123 1.354.17 1.444.663zm0 0"/></g></svg></g><g transform="translate(920, 256)"><svg width="128" height="128" viewBox="0 0 24 24"><path fill="#6e5494" d="M10.984 13.836a.5.5 0 0 1-.353-.146l-.745-.743a.5.5 0 1 1 .706-.708l.392.391 1.181-1.18a.5.5 0 0 1 .708.707l-1.535 1.533a.504.504 0 0 1-.354.146zm9.353-.147l1.534-1.532a.5.5 0 0 0-.707-.707l-1.181 1.18-.392-.391a.5.5 0 1 0-.706.708l.746.743a.497.497 0 0 0 .706-.001zM4.527 7.452l2.557-1.585A1 1 0 0 0 7.09 4.17L4.533 2.56A1 1 0 0 0 3 3.406v3.196a1.001 1.001 0 0 0 1.527.85zm2.03-2.436L4 6.602V3.406l2.557 1.61zM24 12.5c0 1.93-1.57 3.5-3.5 3.5a3.503 3.503 0 0 1-3.46-3h-2.08a3.503 3.503 0 0 1-3.46 3 3.502 3.502 0 0 1-3.46-3h-.558c-.972 0-1.85-.399-2.482-1.042V17c0 1.654 1.346 3 3 3h.04c.244-1.693 1.7-3 3.46-3 1.93 0 3.5 1.57 3.5 3.5S13.43 24 11.5 24a3.502 3.502 0 0 1-3.46-3H8c-2.206 0-4-1.794-4-4V9.899A5.008 5.008 0 0 1 0 5c0-2.757 2.243-5 5-5s5 2.243 5 5a5.005 5.005 0 0 1-4.952 4.998A2.482 2.482 0 0 0 7.482 12h.558c.244-1.693 1.7-3 3.46-3a3.502 3.502 0 0 1 3.46 3h2.08a3.503 3.503 0 0 1 3.46-3c1.93 0 3.5 1.57 3.5 3.5zm-15 8c0 1.378 1.122 2.5 2.5 2.5s2.5-1.122 2.5-2.5-1.122-2.5-2.5-2.5S9 19.122 9 20.5zM5 9c2.206 0 4-1.794 4-4S7.206 1 5 1 1 2.794 1 5s1.794 4 4 4zm9 3.5c0-1.378-1.122-2.5-2.5-2.5S9 11.122 9 12.5s1.122 2.5 2.5 2.5 2.5-1.122 2.5-2.5zm9 0c0-1.378-1.122-2.5-2.5-2.5S18 11.122 18 12.5s1.122 2.5 2.5 2.5 2.5-1.122 2.5-2.5zm-13 8a.5.5 0 1 0 1 0 .5.5 0 0 0-1 0zm2 0a.5.5 0 1 0 1 0 .5.5 0 0 0-1 0zm12 0c0 1.93-1.57 3.5-3.5 3.5a3.503 3.503 0 0 1-3.46-3.002c-.007.001-.013.005-.021.005l-.506.017h-.017a.5.5 0 0 1-.016-.999l.506-.017c.018-.002.035.006.052.007A3.503 3.503 0 0 1 20.5 17c1.93 0 3.5 1.57 3.5 3.5zm-1 0c0-1.378-1.122-2.5-2.5-2.5S18 19.122 18 20.5s1.122 2.5 2.5 2.5 2.5-1.122 2.5-2.5z"/></svg></g></svg>