<svg xmlns="http://www.w3.org/2000/svg" viewBox="0 0 1052 467"><path d="M509 407c-19-19-106-26-116-14-17 19-34 36-12-2-25 26-21 10 4-20 0 0 29-7 24-25-6-19-93-69-163-56-82 14-50 15-76-19-9-12-15-25-92-18-8-43-16-73-70-87C160 66 215 67 214 61c-3-31-14-66 10-4-1-54-4-38 10 2 3 9 69 40 123 51 75 16 98 33 98 22 0-8-7-30-13-34-15-8-27-71-9-85 5-4 95 66 95 66s81-66 90-70c12 10 17 50-9 88-6 7-9 24-9 31 0 15 130-12 209-62 25-16 12-69 19-13 17-48 13-29 6 6-2 7 112 23 210 122-24 0-60 4-67 73-70-1-78-2-107 42-80-6-155-9-191 22l-38 35 29 24c16 14 30 34 0 11 4 44 4 21-17-3-31 0-101 5-107 24-22 67-22 64-37-2z"/></svg>