<svg xmlns="http://www.w3.org/2000/svg" viewBox="8 8 84 84" width="25" height="25"><path fill="#FF7518" d="M80.3,30.7C74.9,27.3,68.9,27,66,28.3c0,0-0.1,0-0.1,0c-2.6-0.8-5.1-0.8-7.2-0.5c-0.8-2-0.8-3.8-0.1-5.2 c1.4-2.8,5.1-3.8,5.2-3.8c1-0.3,1.7-1.3,1.5-2.3l-0.9-4.4c-0.2-0.9-1-1.6-1.9-1.6c-7.2-0.2-12.8,1.7-16.5,5.7 c-3.7,3.9-4.7,8.8-4.9,11.6c-2-0.2-4.4-0.2-6.8,0.6c0,0,0,0-0.1,0c-3-1.4-9-1-14.3,2.4C14.5,34.1,8.2,41.5,8.3,57.5 c0.2,20.2,7,29.8,21.6,30.2c0.6,0.3,1.1,0.6,1.8,0.8c1.9,0.6,4.1,0.8,6.1,0.8c2.9,0,5.6-0.4,6.7-0.6c1.3,0.4,2.7,0.7,4.5,0.8 c0,0,0.1,0,0.1,0c0.2,0,0.3,0,0.4-0.1c0.1,0,0.3,0.1,0.4,0.1c0,0,0.1,0,0.1,0c1.7-0.1,3.2-0.4,4.5-0.8c1.1,0.2,3.8,0.6,6.7,0.6 c2,0,4.2-0.2,6.1-0.8c0.7-0.2,1.3-0.5,1.8-0.8c0.1,0,0.2,0,0.3,0c0,0,0,0,0,0c15-0.2,22-9.8,22.2-30.2C91.8,41.5,85.5,34.1,80.3,30.7z"/><path fill="#FFFF00" stroke="#FFFF00" stroke-width="4" d="M49.3,73.2C49.3,73.2,49.3,73.2,49.3,73.2C49.3,73.2,49.3,73.2,49.3,73.2c-12.7,0-16.6-7.3-17.8-11.9c5.7,2.7,11.6,4,17.8,4c0,0,0,0,0,0 c0,0,0,0,0,0c0.5,0,0.9,0,1.4,0l0,3.3c0,0.6,0.3,1.1,0.7,1.5c0.4,0.4,1,0.5,1.6,0.4c0.1,0,0.9-0.1,1.9-0.3c3-0.5,4.3-0.7,4.5-0.7 c0.9-0.2,1.6-1,1.6-2l0-4c2.1-0.6,4.1-1.4,6.1-2.3C66,65.9,62.1,73.2,49.3,73.2z"/><path fill="#FFFF00" d="M31.4,54.6l12.4,2.8c0.1,0,0.3,0,0.4,0c0,0,0,0,0,0c1.1,0,2-0.9,2-2c0-0.3-0.1-0.6-0.2-0.8l-3.5-12.2c-0.2-0.7-0.8-1.2-1.5-1.4c-0.7-0.2-1.4,0.1-1.9,0.6l-8.9,9.8c-0.5,0.5-0.6,1.3-0.4,2S30.7,54.4,31.4,54.6z"/><path fill="#FFFF00" d="M54.4,57.4c0.1,0,0.3,0,0.4,0l12.4-2.8c0.7-0.2,1.3-0.7,1.5-1.3s0.1-1.4-0.4-2l-8.9-9.8c-0.5-0.5-1.2-0.8-1.9-0.6c-0.7,0.2-1.3,0.7-1.5,1.4l-3.5,12.5c-0.2,0.7,0,1.4,0.5,1.9C53.3,57.1,53.8,57.4,54.4,57.4z"/></svg>