<svg xmlns="http://www.w3.org/2000/svg" viewBox="8 8 84 84" width="25" height="25"><path fill="#FF7518" d="M80.3 30.7C74.9 27.3 68.9 27 66 28.3h-.1c-2.6-.8-5.1-.8-7.2-.5-.8-2-.8-3.8-.1-5.2 1.4-2.8 5.1-3.8 5.2-3.8 1-.3 1.7-1.3 1.5-2.3l-.9-4.4a2 2 0 0 0-1.9-1.6c-7.2-.2-12.8 1.7-16.5 5.7a19 19 0 0 0-4.9 11.6c-2-.2-4.4-.2-6.8.6h-.1c-3-1.4-9-1-14.3 2.4-5.4 3.3-11.7 10.7-11.6 26.7.2 20.2 7 29.8 21.6 30.2.6.3 1.1.6 1.8.8 1.9.6 4.1.8 6.1.8 2.9 0 5.6-.4 6.7-.6 1.3.4 2.7.7 4.5.8h.1l.4-.1.4.1h.1a19 19 0 0 0 4.5-.8c1.1.2 3.8.6 6.7.6 2 0 4.2-.2 6.1-.8.7-.2 1.3-.5 1.8-.8h.3c15-.2 22-9.8 22.2-30.2.2-16-6.1-23.4-11.3-26.8z"/><path fill="#FF0" stroke="#FF0" stroke-width="4" d="M49.3 73.2c-12.7 0-16.6-7.3-17.8-11.9a41 41 0 0 0 17.8 4h1.4v3.3c0 .6.3 1.1.7 1.5.4.4 1 .5 1.6.4l1.9-.3 4.5-.7a2 2 0 0 0 1.6-2v-4c2.1-.6 4.1-1.4 6.1-2.3-1.1 4.7-5 12-17.8 12z"/><path fill="#FF0" d="m31.4 54.6 12.4 2.8h.4a2 2 0 0 0 2-2l-.2-.8-3.5-12.2c-.2-.7-.8-1.2-1.5-1.4-.7-.2-1.4.1-1.9.6l-8.9 9.8c-.5.5-.6 1.3-.4 2s.9 1 1.6 1.2zm23 2.8h.4l12.4-2.8c.7-.2 1.3-.7 1.5-1.3s.1-1.4-.4-2l-8.9-9.8c-.5-.5-1.2-.8-1.9-.6-.7.2-1.3.7-1.5 1.4l-3.5 12.5c-.2.7 0 1.4.5 1.9.3.4.8.7 1.4.7z"/></svg>