<svg xmlns="http://www.w3.org/2000/svg" viewBox="-1 -1 52 52" width="76" height="76"><style></style><a download="Vincent.Cicirello.vcf" type="text/vcard" href="vac.vcf"><rect fill="#f6f0bb" stroke="#862d2d" stroke-width="2" x="0" y="0" width="50" height="50" rx="4" ry="4"/><g text-anchor="middle" font-family="Verdana,Geneva,DejaVu Sans,sans-serif" text-rendering="geometricPrecision" font-size="110"><text x="250" y="97" fill="#862d2d" textLength="360" transform="scale(.1)">Add to</text><text x="250" y="480" fill="#862d2d" textLength="467" transform="scale(.1)">contacts</text></g><g transform="translate(7 9)"><rect fill="#f6f0bb" x="0" y="2" width="36" height="28" rx="4" ry="4"/><path fill="#862d2d" d="M32 5c.55 0 1 .45 1 1V26c0 .55-.45 1-1 1H4c-.55 0-1-.45-1-1V6c0-.55.45-1 1-1H32zM4 2C1.794 2 0 3.794 0 6V26c0 2.206 1.794 4 4 4H32c2.206 0 4-1.794 4-4V6c0-2.206-1.794-4-4-4H4zM13 16a4 4 0 1 0 0-8 4 4 0 1 0 0 8zm-2 2c-2.762 0-5 2.238-5 5 0 .55.45 1 1 1H19c.55 0 1-.45 1-1 0-2.762-2.238-5-5-5H11zM23.5 9c-.831 0-1.5.669-1.5 1.5s.669 1.5 1.5 1.5h5c.831 0 1.5-.669 1.5-1.5s-.669-1.5-1.5-1.5H23.5zm0 6c-.831 0-1.5.669-1.5 1.5s.669 1.5 1.5 1.5h5c.831 0 1.5-.669 1.5-1.5s-.669-1.5-1.5-1.5H23.5z"/></g></a></svg>