<svg xmlns="http://www.w3.org/2000/svg" width="1280" height="640" viewBox="0 0 1280 640"><rect fill="#f6f0bb" stroke="#4CAF50" stroke-width="80" width="1200" height="560" x="40" y="40"/><g font-family="Verdana,Geneva,DejaVu Sans,sans-serif"><text x="50%" y="480" text-anchor="middle" font-size="48px" fill="#305030">A Docker container for shell scripting</text><text x="50%" y="528" text-anchor="middle" font-size="48px" fill="#305030">with GNU tools on Alpine Linux</text><text x="50%" y="180" text-anchor="middle" font-size="96px" font-weight="600" fill="#862d2d">gnu-on-alpine</text></g><g transform="translate(1116,84)"><svg width="80" height="80" viewBox="0 0 32 32"><rect style="fill:#bfd9bf;stroke:#862d2d;stroke-width:1.5;" width="30.5" height="30.5" x="0.75" y="0.75" rx="4"/><text x="50%" y="35%" dominant-baseline="central" text-anchor="middle" font-size="20px" fill="#862d2d" font-family="Times New Roman,Georgia,serif">VC</text><text x="50%" y="65%" dominant-baseline="central" text-anchor="middle" font-size="20px" fill="#862d2d" font-family="Times New Roman,Georgia,serif">A</text></svg></g><g transform="translate(392, 256)"><svg width="128" height="128" viewBox="0 0 24 24"><path fill="#0d597f" d="M5.998 1.607L0 12l5.998 10.393h12.004L24 12 18.002 1.607H5.998zM9.965 7.12L12.66 9.9l1.598 1.595.002-.002 2.41 2.363c-.2.14-.386.252-.563.344a3.756 3.756 0 01-.496.217 2.702 2.702 0 01-.425.111c-.131.023-.25.034-.358.034-.13 0-.242-.014-.338-.034a1.317 1.317 0 01-.24-.072.95.95 0 01-.2-.113l-1.062-1.092-3.039-3.041-1.1 1.053-3.07 3.072a.974.974 0 01-.2.111 1.274 1.274 0 01-.237.073c-.096.02-.209.033-.338.033-.108 0-.227-.009-.358-.031a2.7 2.7 0 01-.425-.114 3.748 3.748 0 01-.496-.217 5.228 5.228 0 01-.563-.343l6.803-6.727zm4.72.785l4.579 4.598 1.382 1.353a5.24 5.24 0 01-.564.344 3.73 3.73 0 01-.494.217 2.697 2.697 0 01-.426.111c-.13.023-.251.034-.36.034-.129 0-.241-.014-.337-.034a1.285 1.285 0 01-.385-.146c-.033-.02-.05-.036-.053-.04l-1.232-1.218-2.111-2.111-.334.334L12.79 9.8l1.896-1.897zm-5.966 4.12v2.529a2.128 2.128 0 01-.356-.035 2.765 2.765 0 01-.422-.116 3.708 3.708 0 01-.488-.214 5.217 5.217 0 01-.555-.34l1.82-1.825Z"/></svg></g><g transform="translate(552, 232)"><svg width="176" height="176" viewBox="0 0 128 128"><path d="M124.8 52.1c-4.3-2.5-10-2.8-14.8-1.4-.6-5.2-4-9.7-8-12.9l-1.6-1.3-1.4 1.6c-2.7 3.1-3.5 8.3-3.1 12.3.3 2.9 1.2 5.9 3 8.3-1.4.8-2.9 1.9-4.3 2.4-2.8 1-5.9 2-8.9 2H79V49H66V24H51v12H26v13H13v14H1.8l-.2 1.5c-.5 6.4.3 12.6 3 18.5l1.1 2.2.1.2c7.9 13.4 21.7 19 36.8 19 29.2 0 53.3-13.1 64.3-40.6 7.4.4 15-1.8 18.6-8.9l.9-1.8-1.6-1zM28 39h10v11H28V39zm13.1 44.2c0 1.7-1.4 3.1-3.1 3.1-1.7 0-3.1-1.4-3.1-3.1 0-1.7 1.4-3.1 3.1-3.1 1.7.1 3.1 1.4 3.1 3.1zM28 52h10v11H28V52zm-13 0h11v11H15V52zm27.7 50.2c-15.8-.1-24.3-5.4-31.3-12.4 2.1.1 4.1.2 5.9.2 1.6 0 3.2 0 4.7-.1 3.9-.2 7.3-.7 10.1-1.5 2.3 5.3 6.5 10.2 14 13.8h-3.4zM51 63H40V52h11v11zm0-13H40V39h11v11zm13 13H53V52h11v11zm0-13H53V39h11v11zm0-13H53V26h11v11zm13 26H66V52h11v11zM38.8 81.2c-.2-.1-.5-.2-.8-.2-1.2 0-2.2 1-2.2 2.2 0 1.2 1 2.2 2.2 2.2s2.2-1 2.2-2.2c0-.3-.1-.6-.2-.8-.2.3-.4.5-.8.5-.5 0-.9-.4-.9-.9.1-.4.3-.7.5-.8z" fill="#019BC6"/></svg></g><g transform="translate(752, 256)"><svg width="128" height="128" viewBox="4 4 120 120"><path fill="none" d="M4.24 4.24h119.53v119.53H4.24z"/><path fill="#293138" d="M109.01 28.64L71.28 6.24c-2.25-1.33-4.77-2-7.28-2s-5.03.67-7.28 2.01l-37.74 22.4c-4.5 2.67-7.28 7.61-7.28 12.96v44.8c0 5.35 2.77 10.29 7.28 12.96l37.73 22.4c2.25 1.34 4.76 2 7.28 2 2.51 0 5.03-.67 7.28-2l37.74-22.4c4.5-2.67 7.28-7.62 7.28-12.96V41.6c0-5.34-2.77-10.29-7.28-12.96zM79.79 98.59l.06 3.22c0 .39-.25.83-.55.99l-1.91 1.1c-.3.15-.56-.03-.56-.42l-.03-3.17c-1.63.68-3.29.84-4.34.42-.2-.08-.29-.37-.21-.71l.69-2.91c.06-.23.18-.46.34-.6.06-.06.12-.1.18-.13.11-.06.22-.07.31-.03 1.14.38 2.59.2 3.99-.5 1.78-.9 2.97-2.72 2.95-4.52-.02-1.64-.9-2.31-3.05-2.33-2.74.01-5.3-.53-5.34-4.57-.03-3.32 1.69-6.78 4.43-8.96l-.03-3.25c0-.4.24-.84.55-1l1.85-1.18c.3-.15.56.04.56.43l.03 3.25c1.36-.54 2.54-.69 3.61-.44.23.06.34.38.24.75l-.72 2.88c-.06.22-.18.44-.33.58a.77.77 0 01-.19.14c-.1.05-.19.06-.28.05-.49-.11-1.65-.36-3.48.56-1.92.97-2.59 2.64-2.58 3.88.02 1.48.77 1.93 3.39 1.97 3.49.06 4.99 1.58 5.03 5.09.05 3.44-1.79 7.15-4.61 9.41zm26.34-60.5l-35.7 22.05c-4.45 2.6-7.73 5.52-7.74 10.89v43.99c0 3.21 1.3 5.29 3.29 5.9-.65.11-1.32.19-1.98.19-2.09 0-4.15-.57-5.96-1.64l-37.73-22.4c-3.69-2.19-5.98-6.28-5.98-10.67V41.6c0-4.39 2.29-8.48 5.98-10.67l37.74-22.4c1.81-1.07 3.87-1.64 5.96-1.64s4.15.57 5.96 1.64l37.74 22.4c3.11 1.85 5.21 5.04 5.8 8.63-1.27-2.67-4.09-3.39-7.38-1.47z"/><path fill="#4FA847" d="M99.12 90.73l-9.4 5.62c-.25.15-.43.31-.43.61v2.46c0 .3.2.43.45.28l9.54-5.8c.25-.15.29-.42.29-.72v-2.17c0-.3-.2-.42-.45-.28z"/></svg></g></svg>