<svg xmlns="http://www.w3.org/2000/svg" width="1280" height="640" viewBox="0 0 1280 640">
<rect fill="#bfd9bf" stroke="#4CAF50" stroke-width="80" width="1200" height="560" x="40" y="40"/>
<g transform="translate(547.5,210)"><path fill="#862d2d" d="M142 175c-5-36 11-74 42-93a49 49 0 0 0-36-11 158 158 0 0 0-46 13c-3 1-8 5-11 4-27-13-67-26-91 0a94 94 0 0 1 16 149 124 124 0 0 0 36 29c7 4 16 7 24 3l11-7h13c4 1 6 5 11 7 3 2 7 2 12 2 12-1 24-12 33-20l16-18c2-2 1-2-1-4a92 92 0 0 1-29-54c-6-38 4 23 0 0z"/><path fill="#4caf50" d="M80 52s-5-35 31-43c26-7 42-4 42-9 0-2 7 41-22 52-29 10-47 8-55 21z"/></g>
<g font-family="Verdana,Geneva,DejaVu Sans,sans-serif"><text x="50%" y="138" text-anchor="middle" font-size="48px" fill="#305030">A Java library of core data structures</text><text x="50%" y="186" text-anchor="middle" font-size="48px" fill="#305030">and other miscellaneous utilities</text>
<text x="50%" y="540" text-anchor="middle" font-size="48px" font-weight="600" fill="#862d2d">https://core.cicirello.org/</text></g>
<g transform="translate(84,476)"><svg width="80" height="80" viewBox="0 0 32 32"><rect style="fill:#f6f0bb;stroke:#862d2d;stroke-width:1.5;" width="30.5" height="30.5" x="0.75" y="0.75" rx="4"/><text x="50%" y="35%" dominant-baseline="central" text-anchor="middle" font-size="20px" fill="#862d2d" font-family="Times New Roman,Georgia,serif">VC</text><text x="50%" y="65%" dominant-baseline="central" text-anchor="middle" font-size="20px" fill="#862d2d" font-family="Times New Roman,Georgia,serif">A</text></svg></g></svg>