<svg xmlns="http://www.w3.org/2000/svg" width="32" height="32" viewBox="0 0 16 16"><rect style="fill:#f6f0bb;stroke:#862d2d;stroke-width:1;" width="15" height="15" x="0.5" y="0.5" rx="2"/><g transform="translate(8,8)"><g transform="scale(.05)"><g transform="translate(-92.5,-136)"><path fill="#862d2d" d="M142 175c-5-36 11-74 42-93a49 49 0 0 0-36-11 158 158 0 0 0-46 13c-3 1-8 5-11 4-27-13-67-26-91 0a94 94 0 0 1 16 149 124 124 0 0 0 36 29c7 4 16 7 24 3l11-7h13c4 1 6 5 11 7 3 2 7 2 12 2 12-1 24-12 33-20l16-18c2-2 1-2-1-4a92 92 0 0 1-29-54c-6-38 4 23 0 0z"/><path fill="#4caf50" d="M80 52s-5-35 31-43c26-7 42-4 42-9 0-2 7 41-22 52-29 10-47 8-55 21z"/></g></g></g></svg>